solid CATIA STL
  facet normal  0.000000e+000  1.000000e+000  -0.000000e+000
    outer loop
      vertex  1.300000e+001  2.377000e+001  6.840000e+001
      vertex  1.300000e+001  2.377000e+001  9.800000e+000
      vertex  1.500000e+000  2.377000e+001  6.840000e+001
    endloop
  endfacet
  facet normal  0.000000e+000  1.000000e+000  0.000000e+000
    outer loop
      vertex  1.500000e+000  2.377000e+001  6.840000e+001
      vertex  1.300000e+001  2.377000e+001  9.800000e+000
      vertex  1.500000e+000  2.377000e+001  5.940000e+001
    endloop
  endfacet
  facet normal  0.000000e+000  1.000000e+000  0.000000e+000
    outer loop
      vertex  1.300000e+001  2.377000e+001  9.800000e+000
      vertex  0.000000e+000  2.377000e+001  9.800000e+000
      vertex  1.500000e+000  2.377000e+001  5.940000e+001
    endloop
  endfacet
  facet normal  0.000000e+000  9.999999e-001  0.000000e+000
    outer loop
      vertex  1.500000e+000  2.377000e+001  5.940000e+001
      vertex  0.000000e+000  2.377000e+001  9.800000e+000
      vertex  0.000000e+000  2.377000e+001  5.940000e+001
    endloop
  endfacet
  facet normal  0.000000e+000  0.000000e+000  1.000000e+000
    outer loop
      vertex  0.000000e+000  1.127000e+001  6.840000e+001
      vertex  1.300000e+001  1.127000e+001  6.840000e+001
      vertex  0.000000e+000  1.752000e+001  6.840000e+001
    endloop
  endfacet
  facet normal  -0.000000e+000  0.000000e+000  1.000000e+000
    outer loop
      vertex  0.000000e+000  1.752000e+001  6.840000e+001
      vertex  1.300000e+001  1.127000e+001  6.840000e+001
      vertex  1.500000e+000  1.752000e+001  6.840000e+001
    endloop
  endfacet
  facet normal  0.000000e+000  0.000000e+000  1.000000e+000
    outer loop
      vertex  1.300000e+001  1.127000e+001  6.840000e+001
      vertex  1.300000e+001  2.377000e+001  6.840000e+001
      vertex  1.500000e+000  1.752000e+001  6.840000e+001
    endloop
  endfacet
  facet normal  0.000000e+000  0.000000e+000  1.000000e+000
    outer loop
      vertex  1.500000e+000  1.752000e+001  6.840000e+001
      vertex  1.300000e+001  2.377000e+001  6.840000e+001
      vertex  1.500000e+000  2.377000e+001  6.840000e+001
    endloop
  endfacet
  facet normal -1.000000e+000  0.000000e+000  0.000000e+000
    outer loop
      vertex  0.000000e+000  1.127000e+001  4.840000e+001
      vertex  0.000000e+000  1.127000e+001  6.840000e+001
      vertex  0.000000e+000  1.752000e+001  6.840000e+001
    endloop
  endfacet
  facet normal -1.000000e+000  0.000000e+000  -0.000000e+000
    outer loop
      vertex  0.000000e+000  1.127000e+001  4.840000e+001
      vertex  0.000000e+000  1.752000e+001  6.840000e+001
      vertex  0.000000e+000  1.752000e+001  5.940000e+001
    endloop
  endfacet
  facet normal -1.000000e+000  0.000000e+000  -0.000000e+000
    outer loop
      vertex  0.000000e+000  1.127000e+001  4.840000e+001
      vertex  0.000000e+000  1.752000e+001  5.940000e+001
      vertex  0.000000e+000  2.377000e+001  5.940000e+001
    endloop
  endfacet
  facet normal -1.000000e+000  0.000000e+000  -0.000000e+000
    outer loop
      vertex  0.000000e+000  1.127000e+001  4.840000e+001
      vertex  0.000000e+000  2.377000e+001  5.940000e+001
      vertex  0.000000e+000  2.377000e+001  9.800000e+000
    endloop
  endfacet
  facet normal -1.000000e+000  0.000000e+000  0.000000e+000
    outer loop
      vertex  0.000000e+000  1.127000e+001  4.840000e+001
      vertex  0.000000e+000  2.377000e+001  9.800000e+000
      vertex  0.000000e+000 -2.377000e+001  9.800000e+000
    endloop
  endfacet
  facet normal -9.999999e-001  0.000000e+000  0.000000e+000
    outer loop
      vertex  0.000000e+000  1.127000e+001  4.840000e+001
      vertex  0.000000e+000 -2.377000e+001  9.800000e+000
      vertex  0.000000e+000 -1.277000e+001  4.840000e+001
    endloop
  endfacet
  facet normal -1.000000e+000  0.000000e+000  0.000000e+000
    outer loop
      vertex  0.000000e+000  3.227000e+001  9.800000e+000
      vertex  0.000000e+000  3.227000e+001 -1.210000e+001
      vertex  0.000000e+000  1.727000e+001 -1.210000e+001
    endloop
  endfacet
  facet normal -1.000000e+000  0.000000e+000  0.000000e+000
    outer loop
      vertex  0.000000e+000  3.227000e+001  9.800000e+000
      vertex  0.000000e+000  1.727000e+001 -1.210000e+001
      vertex  0.000000e+000 -3.730000e+000 -1.210000e+001
    endloop
  endfacet
  facet normal -1.000000e+000  0.000000e+000  0.000000e+000
    outer loop
      vertex  0.000000e+000  3.227000e+001  9.800000e+000
      vertex  0.000000e+000 -3.730000e+000 -1.210000e+001
      vertex  0.000000e+000 -3.227000e+001 -1.210000e+001
    endloop
  endfacet
  facet normal -1.000000e+000  0.000000e+000  0.000000e+000
    outer loop
      vertex  0.000000e+000 -3.227000e+001 -1.210000e+001
      vertex  0.000000e+000 -3.227000e+001  9.800000e+000
      vertex  0.000000e+000 -2.377000e+001  9.800000e+000
    endloop
  endfacet
  facet normal -1.000000e+000  0.000000e+000  -0.000000e+000
    outer loop
      vertex  0.000000e+000 -3.227000e+001 -1.210000e+001
      vertex  0.000000e+000 -2.377000e+001  9.800000e+000
      vertex  0.000000e+000  2.377000e+001  9.800000e+000
    endloop
  endfacet
  facet normal -1.000000e+000  0.000000e+000  -0.000000e+000
    outer loop
      vertex  0.000000e+000 -3.227000e+001 -1.210000e+001
      vertex  0.000000e+000  2.377000e+001  9.800000e+000
      vertex  0.000000e+000  3.227000e+001  9.800000e+000
    endloop
  endfacet
  facet normal -1.000000e+000  0.000000e+000  0.000000e+000
    outer loop
      vertex  0.000000e+000 -3.730000e+000 -6.140000e+001
      vertex  0.000000e+000 -3.730000e+000 -1.210000e+001
      vertex  0.000000e+000  1.727000e+001 -6.140000e+001
    endloop
  endfacet
  facet normal -1.000000e+000  0.000000e+000  0.000000e+000
    outer loop
      vertex  0.000000e+000  1.727000e+001 -6.140000e+001
      vertex  0.000000e+000 -3.730000e+000 -1.210000e+001
      vertex  0.000000e+000  1.727000e+001 -1.210000e+001
    endloop
  endfacet
  facet normal -1.000000e+000  0.000000e+000  0.000000e+000
    outer loop
      vertex  0.000000e+000 -2.377000e+001  9.800000e+000
      vertex  0.000000e+000 -2.377000e+001  6.915000e+001
      vertex  0.000000e+000 -1.277000e+001  4.840000e+001
    endloop
  endfacet
  facet normal -1.000000e+000  0.000000e+000  0.000000e+000
    outer loop
      vertex  0.000000e+000 -1.277000e+001  4.840000e+001
      vertex  0.000000e+000 -2.377000e+001  6.915000e+001
      vertex  0.000000e+000 -1.277000e+001  6.915000e+001
    endloop
  endfacet
  facet normal -1.000000e+000  0.000000e+000  0.000000e+000
    outer loop
      vertex  1.500000e+000  2.377000e+001  5.940000e+001
      vertex  1.500000e+000  1.752000e+001  5.940000e+001
      vertex  1.500000e+000  2.377000e+001  6.840000e+001
    endloop
  endfacet
  facet normal -1.000000e+000  -0.000000e+000  0.000000e+000
    outer loop
      vertex  1.500000e+000  2.377000e+001  6.840000e+001
      vertex  1.500000e+000  1.752000e+001  5.940000e+001
      vertex  1.500000e+000  1.752000e+001  6.840000e+001
    endloop
  endfacet
  facet normal  0.000000e+000  1.000000e+000  -0.000000e+000
    outer loop
      vertex  1.500000e+000  1.752000e+001  6.840000e+001
      vertex  1.500000e+000  1.752000e+001  5.940000e+001
      vertex  0.000000e+000  1.752000e+001  6.840000e+001
    endloop
  endfacet
  facet normal  0.000000e+000  1.000000e+000  0.000000e+000
    outer loop
      vertex  0.000000e+000  1.752000e+001  6.840000e+001
      vertex  1.500000e+000  1.752000e+001  5.940000e+001
      vertex  0.000000e+000  1.752000e+001  5.940000e+001
    endloop
  endfacet
  facet normal  0.000000e+000  0.000000e+000  1.000000e+000
    outer loop
      vertex  1.500000e+000  1.752000e+001  5.940000e+001
      vertex  1.500000e+000  2.377000e+001  5.940000e+001
      vertex  0.000000e+000  1.752000e+001  5.940000e+001
    endloop
  endfacet
  facet normal  0.000000e+000  0.000000e+000  1.000000e+000
    outer loop
      vertex  0.000000e+000  1.752000e+001  5.940000e+001
      vertex  1.500000e+000  2.377000e+001  5.940000e+001
      vertex  0.000000e+000  2.377000e+001  5.940000e+001
    endloop
  endfacet
  facet normal  0.000000e+000 -1.000000e+000  -0.000000e+000
    outer loop
      vertex  1.300000e+001 -3.730000e+000 -6.840000e+001
      vertex  1.300000e+001 -3.730000e+000 -1.210000e+001
      vertex  1.000000e+000 -3.730000e+000 -6.840000e+001
    endloop
  endfacet
  facet normal  0.000000e+000 -1.000000e+000  0.000000e+000
    outer loop
      vertex  1.000000e+000 -3.730000e+000 -6.840000e+001
      vertex  1.300000e+001 -3.730000e+000 -1.210000e+001
      vertex  1.000000e+000 -3.730000e+000 -6.140000e+001
    endloop
  endfacet
  facet normal  0.000000e+000 -9.999999e-001  0.000000e+000
    outer loop
      vertex  1.300000e+001 -3.730000e+000 -1.210000e+001
      vertex  0.000000e+000 -3.730000e+000 -1.210000e+001
      vertex  1.000000e+000 -3.730000e+000 -6.140000e+001
    endloop
  endfacet
  facet normal  0.000000e+000 -1.000000e+000  0.000000e+000
    outer loop
      vertex  1.000000e+000 -3.730000e+000 -6.140000e+001
      vertex  0.000000e+000 -3.730000e+000 -1.210000e+001
      vertex  0.000000e+000 -3.730000e+000 -6.140000e+001
    endloop
  endfacet
  facet normal  0.000000e+000  0.000000e+000 -1.000000e+000
    outer loop
      vertex  1.300000e+001  1.727000e+001 -6.840000e+001
      vertex  1.300000e+001 -3.730000e+000 -6.840000e+001
      vertex  1.000000e+000  1.727000e+001 -6.840000e+001
    endloop
  endfacet
  facet normal  0.000000e+000  0.000000e+000 -1.000000e+000
    outer loop
      vertex  1.000000e+000  1.727000e+001 -6.840000e+001
      vertex  1.300000e+001 -3.730000e+000 -6.840000e+001
      vertex  1.000000e+000 -3.730000e+000 -6.840000e+001
    endloop
  endfacet
  facet normal  0.000000e+000  1.000000e+000  -0.000000e+000
    outer loop
      vertex  1.300000e+001  1.727000e+001 -1.210000e+001
      vertex  1.300000e+001  1.727000e+001 -6.840000e+001
      vertex  1.000000e+000  1.727000e+001 -6.840000e+001
    endloop
  endfacet
  facet normal  0.000000e+000  1.000000e+000  0.000000e+000
    outer loop
      vertex  1.300000e+001  1.727000e+001 -1.210000e+001
      vertex  1.000000e+000  1.727000e+001 -6.840000e+001
      vertex  1.000000e+000  1.727000e+001 -6.140000e+001
    endloop
  endfacet
  facet normal  0.000000e+000  1.000000e+000  -0.000000e+000
    outer loop
      vertex  1.300000e+001  1.727000e+001 -1.210000e+001
      vertex  1.000000e+000  1.727000e+001 -6.140000e+001
      vertex  0.000000e+000  1.727000e+001 -6.140000e+001
    endloop
  endfacet
  facet normal  0.000000e+000  9.999999e-001  0.000000e+000
    outer loop
      vertex  1.300000e+001  1.727000e+001 -1.210000e+001
      vertex  0.000000e+000  1.727000e+001 -6.140000e+001
      vertex  0.000000e+000  1.727000e+001 -1.210000e+001
    endloop
  endfacet
  facet normal -1.000000e+000  0.000000e+000  0.000000e+000
    outer loop
      vertex  1.000000e+000  1.727000e+001 -6.840000e+001
      vertex  1.000000e+000 -3.730000e+000 -6.840000e+001
      vertex  1.000000e+000  1.727000e+001 -6.140000e+001
    endloop
  endfacet
  facet normal -1.000000e+000  -0.000000e+000  0.000000e+000
    outer loop
      vertex  1.000000e+000  1.727000e+001 -6.140000e+001
      vertex  1.000000e+000 -3.730000e+000 -6.840000e+001
      vertex  1.000000e+000 -3.730000e+000 -6.140000e+001
    endloop
  endfacet
  facet normal  0.000000e+000  0.000000e+000 -1.000000e+000
    outer loop
      vertex  1.000000e+000  1.727000e+001 -6.140000e+001
      vertex  1.000000e+000 -3.730000e+000 -6.140000e+001
      vertex  0.000000e+000  1.727000e+001 -6.140000e+001
    endloop
  endfacet
  facet normal  0.000000e+000  0.000000e+000 -1.000000e+000
    outer loop
      vertex  0.000000e+000  1.727000e+001 -6.140000e+001
      vertex  1.000000e+000 -3.730000e+000 -6.140000e+001
      vertex  0.000000e+000 -3.730000e+000 -6.140000e+001
    endloop
  endfacet
  facet normal  1.000000e+000  0.000000e+000  0.000000e+000
    outer loop
      vertex  1.300000e+001  3.227000e+001  9.800000e+000
      vertex  1.300000e+001 -3.227000e+001 -1.210000e+001
      vertex  1.300000e+001 -3.730000e+000 -1.210000e+001
    endloop
  endfacet
  facet normal  1.000000e+000  0.000000e+000  0.000000e+000
    outer loop
      vertex  1.300000e+001  3.227000e+001  9.800000e+000
      vertex  1.300000e+001 -3.730000e+000 -1.210000e+001
      vertex  1.300000e+001  1.727000e+001 -1.210000e+001
    endloop
  endfacet
  facet normal  1.000000e+000  0.000000e+000  0.000000e+000
    outer loop
      vertex  1.300000e+001  3.227000e+001  9.800000e+000
      vertex  1.300000e+001  1.727000e+001 -1.210000e+001
      vertex  1.300000e+001  3.227000e+001 -1.210000e+001
    endloop
  endfacet
  facet normal  1.000000e+000  0.000000e+000  0.000000e+000
    outer loop
      vertex  1.300000e+001 -3.227000e+001 -1.210000e+001
      vertex  1.300000e+001  3.227000e+001  9.800000e+000
      vertex  1.300000e+001  2.377000e+001  9.800000e+000
    endloop
  endfacet
  facet normal  1.000000e+000  0.000000e+000  0.000000e+000
    outer loop
      vertex  1.300000e+001 -3.227000e+001 -1.210000e+001
      vertex  1.300000e+001  2.377000e+001  9.800000e+000
      vertex  1.300000e+001 -2.377000e+001  9.800000e+000
    endloop
  endfacet
  facet normal  1.000000e+000  0.000000e+000  0.000000e+000
    outer loop
      vertex  1.300000e+001 -3.227000e+001 -1.210000e+001
      vertex  1.300000e+001 -2.377000e+001  9.800000e+000
      vertex  1.300000e+001 -3.227000e+001  9.800000e+000
    endloop
  endfacet
  facet normal  1.000000e+000  -0.000000e+000  0.000000e+000
    outer loop
      vertex  1.300000e+001  2.377000e+001  6.840000e+001
      vertex  1.300000e+001  1.127000e+001  6.840000e+001
      vertex  1.300000e+001  2.377000e+001  9.800000e+000
    endloop
  endfacet
  facet normal  1.000000e+000  0.000000e+000  0.000000e+000
    outer loop
      vertex  1.300000e+001  2.377000e+001  9.800000e+000
      vertex  1.300000e+001  1.127000e+001  6.840000e+001
      vertex  1.300000e+001  1.127000e+001  4.840000e+001
    endloop
  endfacet
  facet normal  1.000000e+000  0.000000e+000  0.000000e+000
    outer loop
      vertex  1.300000e+001  2.377000e+001  9.800000e+000
      vertex  1.300000e+001  1.127000e+001  4.840000e+001
      vertex  1.300000e+001 -2.377000e+001  9.800000e+000
    endloop
  endfacet
  facet normal  9.999999e-001  0.000000e+000  0.000000e+000
    outer loop
      vertex  1.300000e+001 -2.377000e+001  9.800000e+000
      vertex  1.300000e+001  1.127000e+001  4.840000e+001
      vertex  1.300000e+001 -1.277000e+001  4.840000e+001
    endloop
  endfacet
  facet normal  1.000000e+000  0.000000e+000  0.000000e+000
    outer loop
      vertex  1.300000e+001 -2.377000e+001  9.800000e+000
      vertex  1.300000e+001 -1.277000e+001  4.840000e+001
      vertex  1.300000e+001 -2.377000e+001  6.915000e+001
    endloop
  endfacet
  facet normal  1.000000e+000  -0.000000e+000  0.000000e+000
    outer loop
      vertex  1.300000e+001 -2.377000e+001  6.915000e+001
      vertex  1.300000e+001 -1.277000e+001  4.840000e+001
      vertex  1.300000e+001 -1.277000e+001  6.915000e+001
    endloop
  endfacet
  facet normal  1.000000e+000  0.000000e+000  0.000000e+000
    outer loop
      vertex  1.300000e+001 -3.730000e+000 -6.840000e+001
      vertex  1.300000e+001  1.727000e+001 -6.840000e+001
      vertex  1.300000e+001 -3.730000e+000 -1.210000e+001
    endloop
  endfacet
  facet normal  1.000000e+000  -0.000000e+000  0.000000e+000
    outer loop
      vertex  1.300000e+001 -3.730000e+000 -1.210000e+001
      vertex  1.300000e+001  1.727000e+001 -6.840000e+001
      vertex  1.300000e+001  1.727000e+001 -1.210000e+001
    endloop
  endfacet
  facet normal  0.000000e+000  0.000000e+000  1.000000e+000
    outer loop
      vertex  1.300000e+001  2.377000e+001  9.800000e+000
      vertex  1.300000e+001  3.227000e+001  9.800000e+000
      vertex  0.000000e+000  2.377000e+001  9.800000e+000
    endloop
  endfacet
  facet normal  0.000000e+000  0.000000e+000  1.000000e+000
    outer loop
      vertex  0.000000e+000  2.377000e+001  9.800000e+000
      vertex  1.300000e+001  3.227000e+001  9.800000e+000
      vertex  0.000000e+000  3.227000e+001  9.800000e+000
    endloop
  endfacet
  facet normal  0.000000e+000  1.000000e+000  -0.000000e+000
    outer loop
      vertex  1.300000e+001  3.227000e+001  9.800000e+000
      vertex  1.300000e+001  3.227000e+001 -1.210000e+001
      vertex  0.000000e+000  3.227000e+001  9.800000e+000
    endloop
  endfacet
  facet normal  0.000000e+000  1.000000e+000  0.000000e+000
    outer loop
      vertex  0.000000e+000  3.227000e+001  9.800000e+000
      vertex  1.300000e+001  3.227000e+001 -1.210000e+001
      vertex  0.000000e+000  3.227000e+001 -1.210000e+001
    endloop
  endfacet
  facet normal  0.000000e+000  0.000000e+000 -1.000000e+000
    outer loop
      vertex  1.300000e+001  3.227000e+001 -1.210000e+001
      vertex  1.300000e+001  1.727000e+001 -1.210000e+001
      vertex  0.000000e+000  3.227000e+001 -1.210000e+001
    endloop
  endfacet
  facet normal  0.000000e+000  0.000000e+000 -1.000000e+000
    outer loop
      vertex  0.000000e+000  3.227000e+001 -1.210000e+001
      vertex  1.300000e+001  1.727000e+001 -1.210000e+001
      vertex  0.000000e+000  1.727000e+001 -1.210000e+001
    endloop
  endfacet
  facet normal  0.000000e+000  0.000000e+000 -1.000000e+000
    outer loop
      vertex  1.300000e+001 -3.730000e+000 -1.210000e+001
      vertex  1.300000e+001 -3.227000e+001 -1.210000e+001
      vertex  0.000000e+000 -3.730000e+000 -1.210000e+001
    endloop
  endfacet
  facet normal  0.000000e+000  0.000000e+000 -1.000000e+000
    outer loop
      vertex  0.000000e+000 -3.730000e+000 -1.210000e+001
      vertex  1.300000e+001 -3.227000e+001 -1.210000e+001
      vertex  0.000000e+000 -3.227000e+001 -1.210000e+001
    endloop
  endfacet
  facet normal  0.000000e+000 -1.000000e+000  -0.000000e+000
    outer loop
      vertex  1.300000e+001 -3.227000e+001 -1.210000e+001
      vertex  1.300000e+001 -3.227000e+001  9.800000e+000
      vertex  0.000000e+000 -3.227000e+001 -1.210000e+001
    endloop
  endfacet
  facet normal  0.000000e+000 -1.000000e+000  0.000000e+000
    outer loop
      vertex  0.000000e+000 -3.227000e+001 -1.210000e+001
      vertex  1.300000e+001 -3.227000e+001  9.800000e+000
      vertex  0.000000e+000 -3.227000e+001  9.800000e+000
    endloop
  endfacet
  facet normal  0.000000e+000  0.000000e+000  1.000000e+000
    outer loop
      vertex  1.300000e+001 -3.227000e+001  9.800000e+000
      vertex  1.300000e+001 -2.377000e+001  9.800000e+000
      vertex  0.000000e+000 -3.227000e+001  9.800000e+000
    endloop
  endfacet
  facet normal  0.000000e+000  0.000000e+000  1.000000e+000
    outer loop
      vertex  0.000000e+000 -3.227000e+001  9.800000e+000
      vertex  1.300000e+001 -2.377000e+001  9.800000e+000
      vertex  0.000000e+000 -2.377000e+001  9.800000e+000
    endloop
  endfacet
  facet normal  0.000000e+000 -1.000000e+000  -0.000000e+000
    outer loop
      vertex  1.300000e+001 -2.377000e+001  9.800000e+000
      vertex  1.300000e+001 -2.377000e+001  6.915000e+001
      vertex  0.000000e+000 -2.377000e+001  9.800000e+000
    endloop
  endfacet
  facet normal  0.000000e+000 -1.000000e+000  0.000000e+000
    outer loop
      vertex  0.000000e+000 -2.377000e+001  9.800000e+000
      vertex  1.300000e+001 -2.377000e+001  6.915000e+001
      vertex  0.000000e+000 -2.377000e+001  6.915000e+001
    endloop
  endfacet
  facet normal  0.000000e+000  0.000000e+000  1.000000e+000
    outer loop
      vertex  0.000000e+000 -2.377000e+001  6.915000e+001
      vertex  1.300000e+001 -2.377000e+001  6.915000e+001
      vertex  0.000000e+000 -1.277000e+001  6.915000e+001
    endloop
  endfacet
  facet normal  -0.000000e+000  0.000000e+000  1.000000e+000
    outer loop
      vertex  0.000000e+000 -1.277000e+001  6.915000e+001
      vertex  1.300000e+001 -2.377000e+001  6.915000e+001
      vertex  1.300000e+001 -1.277000e+001  6.915000e+001
    endloop
  endfacet
  facet normal  0.000000e+000  1.000000e+000  -0.000000e+000
    outer loop
      vertex  1.300000e+001 -1.277000e+001  6.915000e+001
      vertex  1.300000e+001 -1.277000e+001  4.840000e+001
      vertex  0.000000e+000 -1.277000e+001  6.915000e+001
    endloop
  endfacet
  facet normal  0.000000e+000  1.000000e+000  0.000000e+000
    outer loop
      vertex  0.000000e+000 -1.277000e+001  6.915000e+001
      vertex  1.300000e+001 -1.277000e+001  4.840000e+001
      vertex  0.000000e+000 -1.277000e+001  4.840000e+001
    endloop
  endfacet
  facet normal  0.000000e+000  0.000000e+000  1.000000e+000
    outer loop
      vertex  1.300000e+001 -1.277000e+001  4.840000e+001
      vertex  1.300000e+001  1.127000e+001  4.840000e+001
      vertex  0.000000e+000 -1.277000e+001  4.840000e+001
    endloop
  endfacet
  facet normal  0.000000e+000  0.000000e+000  1.000000e+000
    outer loop
      vertex  0.000000e+000 -1.277000e+001  4.840000e+001
      vertex  1.300000e+001  1.127000e+001  4.840000e+001
      vertex  0.000000e+000  1.127000e+001  4.840000e+001
    endloop
  endfacet
  facet normal  0.000000e+000 -1.000000e+000  -0.000000e+000
    outer loop
      vertex  1.300000e+001  1.127000e+001  4.840000e+001
      vertex  1.300000e+001  1.127000e+001  6.840000e+001
      vertex  0.000000e+000  1.127000e+001  4.840000e+001
    endloop
  endfacet
  facet normal  0.000000e+000 -1.000000e+000  0.000000e+000
    outer loop
      vertex  0.000000e+000  1.127000e+001  4.840000e+001
      vertex  1.300000e+001  1.127000e+001  6.840000e+001
      vertex  0.000000e+000  1.127000e+001  6.840000e+001
    endloop
  endfacet
endsolid CATIA STL
