solid CATIA STL
  facet normal  0.000000e+000  0.000000e+000  1.000000e+000
    outer loop
      vertex  0.000000e+000  4.785000e+000 -6.050000e+000
      vertex  0.000000e+000 -4.785000e+000 -6.050000e+000
      vertex  1.500000e+000 -4.785000e+000 -6.050000e+000
    endloop
  endfacet
  facet normal  0.000000e+000  -0.000000e+000  9.999999e-001
    outer loop
      vertex  0.000000e+000  4.785000e+000 -6.050000e+000
      vertex  1.500000e+000 -4.785000e+000 -6.050000e+000
      vertex  1.500000e+000 -3.785000e+000 -6.050000e+000
    endloop
  endfacet
  facet normal  0.000000e+000  -0.000000e+000  1.000000e+000
    outer loop
      vertex  0.000000e+000  4.785000e+000 -6.050000e+000
      vertex  1.500000e+000 -3.785000e+000 -6.050000e+000
      vertex  1.500000e+000  3.785000e+000 -6.050000e+000
    endloop
  endfacet
  facet normal  0.000000e+000  -0.000000e+000  9.999999e-001
    outer loop
      vertex  0.000000e+000  4.785000e+000 -6.050000e+000
      vertex  1.500000e+000  3.785000e+000 -6.050000e+000
      vertex  1.500000e+000  4.785000e+000 -6.050000e+000
    endloop
  endfacet
  facet normal  -0.000000e+000  0.000000e+000  9.999999e-001
    outer loop
      vertex  2.500000e+000  3.785000e+000 -6.050000e+000
      vertex  1.500000e+000  3.785000e+000 -6.050000e+000
      vertex  2.500000e+000 -3.785000e+000 -6.050000e+000
    endloop
  endfacet
  facet normal  0.000000e+000  0.000000e+000  9.999999e-001
    outer loop
      vertex  2.500000e+000 -3.785000e+000 -6.050000e+000
      vertex  1.500000e+000  3.785000e+000 -6.050000e+000
      vertex  1.500000e+000 -3.785000e+000 -6.050000e+000
    endloop
  endfacet
  facet normal  0.000000e+000  0.000000e+000 -9.999999e-001
    outer loop
      vertex  2.500000e+000 -3.785000e+000 -8.500000e+000
      vertex  1.500000e+000 -3.785000e+000 -8.500000e+000
      vertex  2.500000e+000  3.785000e+000 -8.500000e+000
    endloop
  endfacet
  facet normal  -0.000000e+000  -0.000000e+000 -1.000000e+000
    outer loop
      vertex  0.000000e+000  8.675000e+000 -8.500000e+000
      vertex  2.000000e-001  8.675000e+000 -8.500000e+000
      vertex  2.000000e-001  5.985000e+000 -8.500000e+000
    endloop
  endfacet
  facet normal  -0.000000e+000  -0.000000e+000 -1.000000e+000
    outer loop
      vertex  0.000000e+000  8.675000e+000 -8.500000e+000
      vertex  2.000000e-001  5.985000e+000 -8.500000e+000
      vertex  2.000000e-001 -5.985000e+000 -8.500000e+000
    endloop
  endfacet
  facet normal  -0.000000e+000  -0.000000e+000 -1.000000e+000
    outer loop
      vertex  0.000000e+000  8.675000e+000 -8.500000e+000
      vertex  2.000000e-001 -5.985000e+000 -8.500000e+000
      vertex  2.000000e-001 -8.675000e+000 -8.500000e+000
    endloop
  endfacet
  facet normal  0.000000e+000  0.000000e+000 -1.000000e+000
    outer loop
      vertex  0.000000e+000  8.675000e+000 -8.500000e+000
      vertex  2.000000e-001 -8.675000e+000 -8.500000e+000
      vertex  0.000000e+000 -8.675000e+000 -8.500000e+000
    endloop
  endfacet
  facet normal  0.000000e+000  0.000000e+000 -1.000000e+000
    outer loop
      vertex  2.000000e-001 -5.985000e+000 -8.500000e+000
      vertex  2.000000e-001  5.985000e+000 -8.500000e+000
      vertex  1.500000e+000  5.985000e+000 -8.500000e+000
    endloop
  endfacet
  facet normal  0.000000e+000  -0.000000e+000 -1.000000e+000
    outer loop
      vertex  2.000000e-001 -5.985000e+000 -8.500000e+000
      vertex  1.500000e+000  5.985000e+000 -8.500000e+000
      vertex  1.500000e+000  3.785000e+000 -8.500000e+000
    endloop
  endfacet
  facet normal  0.000000e+000  -0.000000e+000 -1.000000e+000
    outer loop
      vertex  2.000000e-001 -5.985000e+000 -8.500000e+000
      vertex  1.500000e+000  3.785000e+000 -8.500000e+000
      vertex  2.500000e+000  3.785000e+000 -8.500000e+000
    endloop
  endfacet
  facet normal  0.000000e+000  0.000000e+000 -9.999999e-001
    outer loop
      vertex  2.000000e-001 -5.985000e+000 -8.500000e+000
      vertex  2.500000e+000  3.785000e+000 -8.500000e+000
      vertex  1.500000e+000 -3.785000e+000 -8.500000e+000
    endloop
  endfacet
  facet normal  0.000000e+000  -0.000000e+000 -1.000000e+000
    outer loop
      vertex  2.000000e-001 -5.985000e+000 -8.500000e+000
      vertex  1.500000e+000 -3.785000e+000 -8.500000e+000
      vertex  1.500000e+000 -5.985000e+000 -8.500000e+000
    endloop
  endfacet
  facet normal  0.000000e+000  1.000000e+000  0.000000e+000
    outer loop
      vertex  2.500000e+000  3.785000e+000 -8.500000e+000
      vertex  1.500000e+000  3.785000e+000 -8.500000e+000
      vertex  2.500000e+000  3.785000e+000 -6.050000e+000
    endloop
  endfacet
  facet normal  0.000000e+000  1.000000e+000  0.000000e+000
    outer loop
      vertex  2.500000e+000  3.785000e+000 -6.050000e+000
      vertex  1.500000e+000  3.785000e+000 -8.500000e+000
      vertex  1.500000e+000  3.785000e+000 -6.050000e+000
    endloop
  endfacet
  facet normal  0.000000e+000 -1.000000e+000  0.000000e+000
    outer loop
      vertex  2.500000e+000 -3.785000e+000 -6.050000e+000
      vertex  1.500000e+000 -3.785000e+000 -6.050000e+000
      vertex  2.500000e+000 -3.785000e+000 -8.500000e+000
    endloop
  endfacet
  facet normal  0.000000e+000 -1.000000e+000  0.000000e+000
    outer loop
      vertex  2.500000e+000 -3.785000e+000 -8.500000e+000
      vertex  1.500000e+000 -3.785000e+000 -6.050000e+000
      vertex  1.500000e+000 -3.785000e+000 -8.500000e+000
    endloop
  endfacet
  facet normal  9.999999e-001  0.000000e+000  -0.000000e+000
    outer loop
      vertex  1.500000e+000 -5.985000e+000 -8.500000e+000
      vertex  1.500000e+000 -3.785000e+000 -8.500000e+000
      vertex  1.500000e+000 -3.785000e+000 -6.050000e+000
    endloop
  endfacet
  facet normal  1.000000e+000  0.000000e+000  0.000000e+000
    outer loop
      vertex  1.500000e+000 -5.985000e+000 -8.500000e+000
      vertex  1.500000e+000 -3.785000e+000 -6.050000e+000
      vertex  1.500000e+000 -4.785000e+000 -6.050000e+000
    endloop
  endfacet
  facet normal  1.000000e+000  0.000000e+000  -0.000000e+000
    outer loop
      vertex  1.500000e+000 -5.985000e+000 -8.500000e+000
      vertex  1.500000e+000 -4.785000e+000 -6.050000e+000
      vertex  1.500000e+000 -4.785000e+000 -4.300000e+000
    endloop
  endfacet
  facet normal  1.000000e+000  0.000000e+000  0.000000e+000
    outer loop
      vertex  1.500000e+000 -5.985000e+000 -8.500000e+000
      vertex  1.500000e+000 -4.785000e+000 -4.300000e+000
      vertex  1.500000e+000 -5.985000e+000 -4.300000e+000
    endloop
  endfacet
  facet normal  1.000000e+000  -0.000000e+000  0.000000e+000
    outer loop
      vertex  1.500000e+000  5.985000e+000 -4.300000e+000
      vertex  1.500000e+000  4.785000e+000 -4.300000e+000
      vertex  1.500000e+000  5.985000e+000 -8.500000e+000
    endloop
  endfacet
  facet normal  1.000000e+000  0.000000e+000  0.000000e+000
    outer loop
      vertex  1.500000e+000  5.985000e+000 -8.500000e+000
      vertex  1.500000e+000  4.785000e+000 -4.300000e+000
      vertex  1.500000e+000  4.785000e+000 -6.050000e+000
    endloop
  endfacet
  facet normal  9.999999e-001  0.000000e+000  0.000000e+000
    outer loop
      vertex  1.500000e+000  5.985000e+000 -8.500000e+000
      vertex  1.500000e+000  4.785000e+000 -6.050000e+000
      vertex  1.500000e+000  3.785000e+000 -8.500000e+000
    endloop
  endfacet
  facet normal  1.000000e+000  0.000000e+000  0.000000e+000
    outer loop
      vertex  1.500000e+000  3.785000e+000 -8.500000e+000
      vertex  1.500000e+000  4.785000e+000 -6.050000e+000
      vertex  1.500000e+000  3.785000e+000 -6.050000e+000
    endloop
  endfacet
  facet normal  1.000000e+000  0.000000e+000  0.000000e+000
    outer loop
      vertex  2.500000e+000 -3.785000e+000 -8.500000e+000
      vertex  2.500000e+000  3.785000e+000 -8.500000e+000
      vertex  2.500000e+000 -3.785000e+000 -6.050000e+000
    endloop
  endfacet
  facet normal  1.000000e+000  -0.000000e+000  0.000000e+000
    outer loop
      vertex  2.500000e+000 -3.785000e+000 -6.050000e+000
      vertex  2.500000e+000  3.785000e+000 -8.500000e+000
      vertex  2.500000e+000  3.785000e+000 -6.050000e+000
    endloop
  endfacet
  facet normal -9.999999e-001  0.000000e+000  0.000000e+000
    outer loop
      vertex  0.000000e+000  8.675000e+000 -8.500000e+000
      vertex  0.000000e+000 -8.675000e+000 -8.500000e+000
      vertex  0.000000e+000  7.249798e+000 -6.858077e+000
    endloop
  endfacet
  facet normal -1.000000e+000  0.000000e+000  0.000000e+000
    outer loop
      vertex  0.000000e+000  8.675000e+000 -8.500000e+000
      vertex  0.000000e+000  7.249798e+000 -6.858077e+000
      vertex  0.000000e+000  7.550201e+000 -6.858077e+000
    endloop
  endfacet
  facet normal -1.000000e+000  0.000000e+000  0.000000e+000
    outer loop
      vertex  0.000000e+000  8.675000e+000 -8.500000e+000
      vertex  0.000000e+000  7.550201e+000 -6.858077e+000
      vertex  0.000000e+000  7.820856e+000 -6.727736e+000
    endloop
  endfacet
  facet normal -1.000000e+000  0.000000e+000  0.000000e+000
    outer loop
      vertex  0.000000e+000  8.675000e+000 -8.500000e+000
      vertex  0.000000e+000  7.820856e+000 -6.727736e+000
      vertex  0.000000e+000  8.008154e+000 -6.492872e+000
    endloop
  endfacet
  facet normal -1.000000e+000  0.000000e+000  0.000000e+000
    outer loop
      vertex  0.000000e+000  8.675000e+000 -8.500000e+000
      vertex  0.000000e+000  8.008154e+000 -6.492872e+000
      vertex  0.000000e+000  8.075000e+000 -6.200000e+000
    endloop
  endfacet
  facet normal -1.000000e+000  0.000000e+000  0.000000e+000
    outer loop
      vertex  0.000000e+000  8.675000e+000 -8.500000e+000
      vertex  0.000000e+000  8.075000e+000 -6.200000e+000
      vertex  0.000000e+000  8.675000e+000 -6.200000e+000
    endloop
  endfacet
  facet normal -1.000000e+000  0.000000e+000  0.000000e+000
    outer loop
      vertex  0.000000e+000 -8.675000e+000 -8.500000e+000
      vertex  0.000000e+000 -8.675000e+000 -6.200000e+000
      vertex  0.000000e+000 -8.075000e+000 -6.200000e+000
    endloop
  endfacet
  facet normal -1.000000e+000  0.000000e+000  -0.000000e+000
    outer loop
      vertex  0.000000e+000 -8.675000e+000 -8.500000e+000
      vertex  0.000000e+000 -8.075000e+000 -6.200000e+000
      vertex  0.000000e+000 -8.008154e+000 -6.492872e+000
    endloop
  endfacet
  facet normal -1.000000e+000  0.000000e+000  -0.000000e+000
    outer loop
      vertex  0.000000e+000 -8.675000e+000 -8.500000e+000
      vertex  0.000000e+000 -8.008154e+000 -6.492872e+000
      vertex  0.000000e+000 -7.820856e+000 -6.727736e+000
    endloop
  endfacet
  facet normal -1.000000e+000  0.000000e+000  -0.000000e+000
    outer loop
      vertex  0.000000e+000 -8.675000e+000 -8.500000e+000
      vertex  0.000000e+000 -7.820856e+000 -6.727736e+000
      vertex  0.000000e+000 -7.550201e+000 -6.858077e+000
    endloop
  endfacet
  facet normal -1.000000e+000  0.000000e+000  -0.000000e+000
    outer loop
      vertex  0.000000e+000 -8.675000e+000 -8.500000e+000
      vertex  0.000000e+000 -7.550201e+000 -6.858077e+000
      vertex  0.000000e+000 -7.249798e+000 -6.858077e+000
    endloop
  endfacet
  facet normal -1.000000e+000  0.000000e+000  -0.000000e+000
    outer loop
      vertex  0.000000e+000 -8.675000e+000 -8.500000e+000
      vertex  0.000000e+000 -7.249798e+000 -6.858077e+000
      vertex  0.000000e+000  7.249798e+000 -6.858077e+000
    endloop
  endfacet
  facet normal -1.000000e+000  -0.000000e+000  -0.000000e+000
    outer loop
      vertex  0.000000e+000 -4.785000e+000 -6.050000e+000
      vertex  0.000000e+000  4.785000e+000 -6.050000e+000
      vertex  0.000000e+000  6.725000e+000 -6.200000e+000
    endloop
  endfacet
  facet normal -1.000000e+000  0.000000e+000  0.000000e+000
    outer loop
      vertex  0.000000e+000 -4.785000e+000 -6.050000e+000
      vertex  0.000000e+000  6.725000e+000 -6.200000e+000
      vertex  0.000000e+000 -6.725000e+000 -6.200000e+000
    endloop
  endfacet
  facet normal -1.000000e+000  0.000000e+000  0.000000e+000
    outer loop
      vertex  0.000000e+000 -4.785000e+000 -6.050000e+000
      vertex  0.000000e+000 -6.725000e+000 -6.200000e+000
      vertex  0.000000e+000 -6.791846e+000 -5.907128e+000
    endloop
  endfacet
  facet normal -1.000000e+000  0.000000e+000  0.000000e+000
    outer loop
      vertex  0.000000e+000 -4.785000e+000 -6.050000e+000
      vertex  0.000000e+000 -6.791846e+000 -5.907128e+000
      vertex  0.000000e+000 -6.979145e+000 -5.672264e+000
    endloop
  endfacet
  facet normal -1.000000e+000  0.000000e+000  0.000000e+000
    outer loop
      vertex  0.000000e+000 -4.785000e+000 -6.050000e+000
      vertex  0.000000e+000 -6.979145e+000 -5.672264e+000
      vertex  0.000000e+000 -7.249798e+000 -5.541924e+000
    endloop
  endfacet
  facet normal -1.000000e+000  0.000000e+000  0.000000e+000
    outer loop
      vertex  0.000000e+000 -4.785000e+000 -6.050000e+000
      vertex  0.000000e+000 -7.249798e+000 -5.541924e+000
      vertex  0.000000e+000 -7.400000e+000 -4.925000e+000
    endloop
  endfacet
  facet normal -1.000000e+000  0.000000e+000  0.000000e+000
    outer loop
      vertex  0.000000e+000 -4.785000e+000 -6.050000e+000
      vertex  0.000000e+000 -7.400000e+000 -4.925000e+000
      vertex  0.000000e+000 -7.400000e+000 -4.300000e+000
    endloop
  endfacet
  facet normal -1.000000e+000  0.000000e+000  0.000000e+000
    outer loop
      vertex  0.000000e+000 -4.785000e+000 -6.050000e+000
      vertex  0.000000e+000 -7.400000e+000 -4.300000e+000
      vertex  0.000000e+000 -4.785000e+000 -4.300000e+000
    endloop
  endfacet
  facet normal -1.000000e+000  0.000000e+000  0.000000e+000
    outer loop
      vertex  0.000000e+000  4.785000e+000 -6.050000e+000
      vertex  0.000000e+000  4.785000e+000 -4.300000e+000
      vertex  0.000000e+000  7.400000e+000 -4.300000e+000
    endloop
  endfacet
  facet normal -1.000000e+000  0.000000e+000  -0.000000e+000
    outer loop
      vertex  0.000000e+000  4.785000e+000 -6.050000e+000
      vertex  0.000000e+000  7.400000e+000 -4.300000e+000
      vertex  0.000000e+000  7.400000e+000 -4.925000e+000
    endloop
  endfacet
  facet normal -1.000000e+000  0.000000e+000  0.000000e+000
    outer loop
      vertex  0.000000e+000  4.785000e+000 -6.050000e+000
      vertex  0.000000e+000  7.400000e+000 -4.925000e+000
      vertex  0.000000e+000  7.249798e+000 -5.541924e+000
    endloop
  endfacet
  facet normal -1.000000e+000  0.000000e+000  0.000000e+000
    outer loop
      vertex  0.000000e+000  4.785000e+000 -6.050000e+000
      vertex  0.000000e+000  7.249798e+000 -5.541924e+000
      vertex  0.000000e+000  6.979145e+000 -5.672264e+000
    endloop
  endfacet
  facet normal -1.000000e+000  0.000000e+000  0.000000e+000
    outer loop
      vertex  0.000000e+000  4.785000e+000 -6.050000e+000
      vertex  0.000000e+000  6.979145e+000 -5.672264e+000
      vertex  0.000000e+000  6.791846e+000 -5.907128e+000
    endloop
  endfacet
  facet normal -1.000000e+000  0.000000e+000  0.000000e+000
    outer loop
      vertex  0.000000e+000  4.785000e+000 -6.050000e+000
      vertex  0.000000e+000  6.791846e+000 -5.907128e+000
      vertex  0.000000e+000  6.725000e+000 -6.200000e+000
    endloop
  endfacet
  facet normal -1.000000e+000  0.000000e+000  0.000000e+000
    outer loop
      vertex  0.000000e+000  8.431497e+000 -5.450574e+000
      vertex  0.000000e+000  7.550201e+000 -5.541924e+000
      vertex  0.000000e+000  8.149426e+000 -5.168503e+000
    endloop
  endfacet
  facet normal -9.999999e-001  -0.000000e+000  0.000000e+000
    outer loop
      vertex  0.000000e+000  8.149426e+000 -5.168503e+000
      vertex  0.000000e+000  7.550201e+000 -5.541924e+000
      vertex  0.000000e+000  7.793997e+000 -4.987403e+000
    endloop
  endfacet
  facet normal -9.999999e-001  0.000000e+000  0.000000e+000
    outer loop
      vertex  0.000000e+000  7.550201e+000 -5.541924e+000
      vertex  0.000000e+000  7.249798e+000 -5.541924e+000
      vertex  0.000000e+000  7.793997e+000 -4.987403e+000
    endloop
  endfacet
  facet normal -1.000000e+000  -0.000000e+000  0.000000e+000
    outer loop
      vertex  0.000000e+000  7.793997e+000 -4.987403e+000
      vertex  0.000000e+000  7.249798e+000 -5.541924e+000
      vertex  0.000000e+000  7.400000e+000 -4.925000e+000
    endloop
  endfacet
  facet normal -1.000000e+000  0.000000e+000  0.000000e+000
    outer loop
      vertex  0.000000e+000 -7.249798e+000 -5.541924e+000
      vertex  0.000000e+000 -7.550201e+000 -5.541924e+000
      vertex  0.000000e+000 -7.400000e+000 -4.925000e+000
    endloop
  endfacet
  facet normal -9.999999e-001  0.000000e+000  0.000000e+000
    outer loop
      vertex  0.000000e+000 -7.400000e+000 -4.925000e+000
      vertex  0.000000e+000 -7.550201e+000 -5.541924e+000
      vertex  0.000000e+000 -7.793997e+000 -4.987403e+000
    endloop
  endfacet
  facet normal -1.000000e+000  0.000000e+000  0.000000e+000
    outer loop
      vertex  0.000000e+000 -7.550201e+000 -5.541924e+000
      vertex  0.000000e+000 -8.431497e+000 -5.450574e+000
      vertex  0.000000e+000 -7.793997e+000 -4.987403e+000
    endloop
  endfacet
  facet normal -9.999999e-001  0.000000e+000  0.000000e+000
    outer loop
      vertex  0.000000e+000 -7.793997e+000 -4.987403e+000
      vertex  0.000000e+000 -8.431497e+000 -5.450574e+000
      vertex  0.000000e+000 -8.149426e+000 -5.168503e+000
    endloop
  endfacet
  facet normal -1.000000e+000  0.000000e+000  0.000000e+000
    outer loop
      vertex  0.000000e+000 -8.008154e+000 -5.907128e+000
      vertex  0.000000e+000 -8.612597e+000 -5.806004e+000
      vertex  0.000000e+000 -7.820856e+000 -5.672264e+000
    endloop
  endfacet
  facet normal -1.000000e+000  -0.000000e+000  0.000000e+000
    outer loop
      vertex  0.000000e+000 -7.820856e+000 -5.672264e+000
      vertex  0.000000e+000 -8.612597e+000 -5.806004e+000
      vertex  0.000000e+000 -8.431497e+000 -5.450574e+000
    endloop
  endfacet
  facet normal -1.000000e+000  0.000000e+000  0.000000e+000
    outer loop
      vertex  0.000000e+000 -7.820856e+000 -5.672264e+000
      vertex  0.000000e+000 -8.431497e+000 -5.450574e+000
      vertex  0.000000e+000 -7.550201e+000 -5.541924e+000
    endloop
  endfacet
  facet normal -9.999999e-001  0.000000e+000  -0.000000e+000
    outer loop
      vertex  0.000000e+000 -8.675000e+000 -6.200000e+000
      vertex  0.000000e+000 -8.612597e+000 -5.806004e+000
      vertex  0.000000e+000 -8.075000e+000 -6.200000e+000
    endloop
  endfacet
  facet normal -9.999999e-001  0.000000e+000  0.000000e+000
    outer loop
      vertex  0.000000e+000 -8.075000e+000 -6.200000e+000
      vertex  0.000000e+000 -8.612597e+000 -5.806004e+000
      vertex  0.000000e+000 -8.008154e+000 -5.907128e+000
    endloop
  endfacet
  facet normal -1.000000e+000  0.000000e+000  0.000000e+000
    outer loop
      vertex  0.000000e+000  6.791846e+000 -6.492872e+000
      vertex  0.000000e+000 -6.725000e+000 -6.200000e+000
      vertex  0.000000e+000  6.725000e+000 -6.200000e+000
    endloop
  endfacet
  facet normal -1.000000e+000  0.000000e+000  0.000000e+000
    outer loop
      vertex  0.000000e+000 -6.725000e+000 -6.200000e+000
      vertex  0.000000e+000  6.791846e+000 -6.492872e+000
      vertex  0.000000e+000 -6.791846e+000 -6.492872e+000
    endloop
  endfacet
  facet normal -9.999999e-001  0.000000e+000  0.000000e+000
    outer loop
      vertex  0.000000e+000 -6.791846e+000 -6.492872e+000
      vertex  0.000000e+000  6.791846e+000 -6.492872e+000
      vertex  0.000000e+000  6.979145e+000 -6.727736e+000
    endloop
  endfacet
  facet normal -1.000000e+000  0.000000e+000  0.000000e+000
    outer loop
      vertex  0.000000e+000 -6.791846e+000 -6.492872e+000
      vertex  0.000000e+000  6.979145e+000 -6.727736e+000
      vertex  0.000000e+000 -6.979145e+000 -6.727736e+000
    endloop
  endfacet
  facet normal -9.999999e-001  0.000000e+000  0.000000e+000
    outer loop
      vertex  0.000000e+000 -6.979145e+000 -6.727736e+000
      vertex  0.000000e+000  6.979145e+000 -6.727736e+000
      vertex  0.000000e+000  7.249798e+000 -6.858077e+000
    endloop
  endfacet
  facet normal -1.000000e+000  0.000000e+000  0.000000e+000
    outer loop
      vertex  0.000000e+000 -6.979145e+000 -6.727736e+000
      vertex  0.000000e+000  7.249798e+000 -6.858077e+000
      vertex  0.000000e+000 -7.249798e+000 -6.858077e+000
    endloop
  endfacet
  facet normal -1.000000e+000  0.000000e+000  0.000000e+000
    outer loop
      vertex  0.000000e+000  8.008154e+000 -5.907128e+000
      vertex  0.000000e+000  7.820856e+000 -5.672264e+000
      vertex  0.000000e+000  8.612597e+000 -5.806004e+000
    endloop
  endfacet
  facet normal -1.000000e+000  0.000000e+000  0.000000e+000
    outer loop
      vertex  0.000000e+000  8.612597e+000 -5.806004e+000
      vertex  0.000000e+000  7.820856e+000 -5.672264e+000
      vertex  0.000000e+000  7.550201e+000 -5.541924e+000
    endloop
  endfacet
  facet normal -1.000000e+000  0.000000e+000  0.000000e+000
    outer loop
      vertex  0.000000e+000  8.612597e+000 -5.806004e+000
      vertex  0.000000e+000  7.550201e+000 -5.541924e+000
      vertex  0.000000e+000  8.431497e+000 -5.450574e+000
    endloop
  endfacet
  facet normal -9.999999e-001  0.000000e+000  0.000000e+000
    outer loop
      vertex  0.000000e+000  8.008154e+000 -5.907128e+000
      vertex  0.000000e+000  8.612597e+000 -5.806004e+000
      vertex  0.000000e+000  8.075000e+000 -6.200000e+000
    endloop
  endfacet
  facet normal -9.999999e-001  0.000000e+000  0.000000e+000
    outer loop
      vertex  0.000000e+000  8.075000e+000 -6.200000e+000
      vertex  0.000000e+000  8.612597e+000 -5.806004e+000
      vertex  0.000000e+000  8.675000e+000 -6.200000e+000
    endloop
  endfacet
  facet normal  0.000000e+000  0.000000e+000  1.000000e+000
    outer loop
      vertex  0.000000e+000 -7.400000e+000 -4.300000e+000
      vertex  2.000000e-001 -7.400000e+000 -4.300000e+000
      vertex  0.000000e+000 -4.785000e+000 -4.300000e+000
    endloop
  endfacet
  facet normal  0.000000e+000  0.000000e+000  1.000000e+000
    outer loop
      vertex  0.000000e+000 -4.785000e+000 -4.300000e+000
      vertex  2.000000e-001 -7.400000e+000 -4.300000e+000
      vertex  2.000000e-001 -5.985000e+000 -4.300000e+000
    endloop
  endfacet
  facet normal  0.000000e+000  -0.000000e+000  1.000000e+000
    outer loop
      vertex  0.000000e+000 -4.785000e+000 -4.300000e+000
      vertex  2.000000e-001 -5.985000e+000 -4.300000e+000
      vertex  1.500000e+000 -4.785000e+000 -4.300000e+000
    endloop
  endfacet
  facet normal  0.000000e+000  0.000000e+000  1.000000e+000
    outer loop
      vertex  1.500000e+000 -4.785000e+000 -4.300000e+000
      vertex  2.000000e-001 -5.985000e+000 -4.300000e+000
      vertex  1.500000e+000 -5.985000e+000 -4.300000e+000
    endloop
  endfacet
  facet normal  0.000000e+000  0.000000e+000  9.999999e-001
    outer loop
      vertex  1.500000e+000  4.785000e+000 -4.300000e+000
      vertex  1.500000e+000  5.985000e+000 -4.300000e+000
      vertex  0.000000e+000  4.785000e+000 -4.300000e+000
    endloop
  endfacet
  facet normal  0.000000e+000  0.000000e+000  1.000000e+000
    outer loop
      vertex  0.000000e+000  4.785000e+000 -4.300000e+000
      vertex  1.500000e+000  5.985000e+000 -4.300000e+000
      vertex  2.000000e-001  5.985000e+000 -4.300000e+000
    endloop
  endfacet
  facet normal  0.000000e+000  0.000000e+000  1.000000e+000
    outer loop
      vertex  0.000000e+000  4.785000e+000 -4.300000e+000
      vertex  2.000000e-001  5.985000e+000 -4.300000e+000
      vertex  0.000000e+000  7.400000e+000 -4.300000e+000
    endloop
  endfacet
  facet normal  -0.000000e+000  0.000000e+000  1.000000e+000
    outer loop
      vertex  0.000000e+000  7.400000e+000 -4.300000e+000
      vertex  2.000000e-001  5.985000e+000 -4.300000e+000
      vertex  2.000000e-001  7.400000e+000 -4.300000e+000
    endloop
  endfacet
  facet normal  0.000000e+000 -1.000000e+000  0.000000e+000
    outer loop
      vertex  1.500000e+000  4.785000e+000 -4.300000e+000
      vertex  0.000000e+000  4.785000e+000 -4.300000e+000
      vertex  1.500000e+000  4.785000e+000 -6.050000e+000
    endloop
  endfacet
  facet normal  0.000000e+000 -1.000000e+000  0.000000e+000
    outer loop
      vertex  1.500000e+000  4.785000e+000 -6.050000e+000
      vertex  0.000000e+000  4.785000e+000 -4.300000e+000
      vertex  0.000000e+000  4.785000e+000 -6.050000e+000
    endloop
  endfacet
  facet normal  0.000000e+000  1.000000e+000  -0.000000e+000
    outer loop
      vertex  1.500000e+000 -4.785000e+000 -4.300000e+000
      vertex  1.500000e+000 -4.785000e+000 -6.050000e+000
      vertex  0.000000e+000 -4.785000e+000 -4.300000e+000
    endloop
  endfacet
  facet normal  0.000000e+000  1.000000e+000  0.000000e+000
    outer loop
      vertex  0.000000e+000 -4.785000e+000 -4.300000e+000
      vertex  1.500000e+000 -4.785000e+000 -6.050000e+000
      vertex  0.000000e+000 -4.785000e+000 -6.050000e+000
    endloop
  endfacet
  facet normal  0.000000e+000  1.000000e+000  -0.000000e+000
    outer loop
      vertex  1.500000e+000  5.985000e+000 -4.300000e+000
      vertex  1.500000e+000  5.985000e+000 -8.500000e+000
      vertex  2.000000e-001  5.985000e+000 -4.300000e+000
    endloop
  endfacet
  facet normal  0.000000e+000  1.000000e+000  0.000000e+000
    outer loop
      vertex  2.000000e-001  5.985000e+000 -4.300000e+000
      vertex  1.500000e+000  5.985000e+000 -8.500000e+000
      vertex  2.000000e-001  5.985000e+000 -8.500000e+000
    endloop
  endfacet
  facet normal  0.000000e+000 -1.000000e+000  -0.000000e+000
    outer loop
      vertex  1.500000e+000 -5.985000e+000 -8.500000e+000
      vertex  1.500000e+000 -5.985000e+000 -4.300000e+000
      vertex  2.000000e-001 -5.985000e+000 -8.500000e+000
    endloop
  endfacet
  facet normal  0.000000e+000 -1.000000e+000  0.000000e+000
    outer loop
      vertex  2.000000e-001 -5.985000e+000 -8.500000e+000
      vertex  1.500000e+000 -5.985000e+000 -4.300000e+000
      vertex  2.000000e-001 -5.985000e+000 -4.300000e+000
    endloop
  endfacet
  facet normal  1.000000e+000  0.000000e+000  0.000000e+000
    outer loop
      vertex  2.000000e-001  8.675000e+000 -8.500000e+000
      vertex  2.000000e-001  8.675000e+000 -6.200000e+000
      vertex  2.000000e-001  8.075000e+000 -6.200000e+000
    endloop
  endfacet
  facet normal  1.000000e+000  0.000000e+000  0.000000e+000
    outer loop
      vertex  2.000000e-001  8.675000e+000 -8.500000e+000
      vertex  2.000000e-001  8.075000e+000 -6.200000e+000
      vertex  2.000000e-001  8.008154e+000 -6.492872e+000
    endloop
  endfacet
  facet normal  1.000000e+000  0.000000e+000  0.000000e+000
    outer loop
      vertex  2.000000e-001  8.675000e+000 -8.500000e+000
      vertex  2.000000e-001  8.008154e+000 -6.492872e+000
      vertex  2.000000e-001  7.820856e+000 -6.727736e+000
    endloop
  endfacet
  facet normal  1.000000e+000  0.000000e+000  0.000000e+000
    outer loop
      vertex  2.000000e-001  8.675000e+000 -8.500000e+000
      vertex  2.000000e-001  7.820856e+000 -6.727736e+000
      vertex  2.000000e-001  7.550201e+000 -6.858077e+000
    endloop
  endfacet
  facet normal  1.000000e+000  0.000000e+000  0.000000e+000
    outer loop
      vertex  2.000000e-001  8.675000e+000 -8.500000e+000
      vertex  2.000000e-001  7.550201e+000 -6.858077e+000
      vertex  2.000000e-001  7.249798e+000 -6.858077e+000
    endloop
  endfacet
  facet normal  1.000000e+000  0.000000e+000  0.000000e+000
    outer loop
      vertex  2.000000e-001  8.675000e+000 -8.500000e+000
      vertex  2.000000e-001  7.249798e+000 -6.858077e+000
      vertex  2.000000e-001  5.985000e+000 -8.500000e+000
    endloop
  endfacet
  facet normal  1.000000e+000  0.000000e+000  0.000000e+000
    outer loop
      vertex  2.000000e-001  5.985000e+000 -8.500000e+000
      vertex  2.000000e-001  7.249798e+000 -6.858077e+000
      vertex  2.000000e-001  6.979145e+000 -6.727736e+000
    endloop
  endfacet
  facet normal  1.000000e+000  0.000000e+000  0.000000e+000
    outer loop
      vertex  2.000000e-001  5.985000e+000 -8.500000e+000
      vertex  2.000000e-001  6.979145e+000 -6.727736e+000
      vertex  2.000000e-001  6.791846e+000 -6.492872e+000
    endloop
  endfacet
  facet normal  1.000000e+000  0.000000e+000  0.000000e+000
    outer loop
      vertex  2.000000e-001  5.985000e+000 -8.500000e+000
      vertex  2.000000e-001  6.791846e+000 -6.492872e+000
      vertex  2.000000e-001  6.725000e+000 -6.200000e+000
    endloop
  endfacet
  facet normal  1.000000e+000  0.000000e+000  -0.000000e+000
    outer loop
      vertex  2.000000e-001  5.985000e+000 -8.500000e+000
      vertex  2.000000e-001  6.725000e+000 -6.200000e+000
      vertex  2.000000e-001  6.791846e+000 -5.907128e+000
    endloop
  endfacet
  facet normal  1.000000e+000  0.000000e+000  0.000000e+000
    outer loop
      vertex  2.000000e-001  5.985000e+000 -8.500000e+000
      vertex  2.000000e-001  6.791846e+000 -5.907128e+000
      vertex  2.000000e-001  5.985000e+000 -4.300000e+000
    endloop
  endfacet
  facet normal  1.000000e+000  0.000000e+000  0.000000e+000
    outer loop
      vertex  2.000000e-001  8.431497e+000 -5.450574e+000
      vertex  2.000000e-001  8.149426e+000 -5.168503e+000
      vertex  2.000000e-001  7.550201e+000 -5.541924e+000
    endloop
  endfacet
  facet normal  9.999999e-001  0.000000e+000  0.000000e+000
    outer loop
      vertex  2.000000e-001  7.550201e+000 -5.541924e+000
      vertex  2.000000e-001  8.149426e+000 -5.168503e+000
      vertex  2.000000e-001  7.793997e+000 -4.987403e+000
    endloop
  endfacet
  facet normal  9.999999e-001  0.000000e+000  0.000000e+000
    outer loop
      vertex  2.000000e-001  7.550201e+000 -5.541924e+000
      vertex  2.000000e-001  7.793997e+000 -4.987403e+000
      vertex  2.000000e-001  7.249798e+000 -5.541924e+000
    endloop
  endfacet
  facet normal  1.000000e+000  0.000000e+000  0.000000e+000
    outer loop
      vertex  2.000000e-001  7.249798e+000 -5.541924e+000
      vertex  2.000000e-001  7.793997e+000 -4.987403e+000
      vertex  2.000000e-001  7.400000e+000 -4.925000e+000
    endloop
  endfacet
  facet normal  1.000000e+000  0.000000e+000  0.000000e+000
    outer loop
      vertex  2.000000e-001  7.249798e+000 -5.541924e+000
      vertex  2.000000e-001  7.400000e+000 -4.925000e+000
      vertex  2.000000e-001  6.979145e+000 -5.672264e+000
    endloop
  endfacet
  facet normal  1.000000e+000  0.000000e+000  0.000000e+000
    outer loop
      vertex  2.000000e-001  6.979145e+000 -5.672264e+000
      vertex  2.000000e-001  7.400000e+000 -4.925000e+000
      vertex  2.000000e-001  6.791846e+000 -5.907128e+000
    endloop
  endfacet
  facet normal  1.000000e+000  0.000000e+000  0.000000e+000
    outer loop
      vertex  2.000000e-001  6.791846e+000 -5.907128e+000
      vertex  2.000000e-001  7.400000e+000 -4.925000e+000
      vertex  2.000000e-001  7.400000e+000 -4.300000e+000
    endloop
  endfacet
  facet normal  1.000000e+000  0.000000e+000  0.000000e+000
    outer loop
      vertex  2.000000e-001  6.791846e+000 -5.907128e+000
      vertex  2.000000e-001  7.400000e+000 -4.300000e+000
      vertex  2.000000e-001  5.985000e+000 -4.300000e+000
    endloop
  endfacet
  facet normal  1.000000e+000  -0.000000e+000  0.000000e+000
    outer loop
      vertex  2.000000e-001  8.431497e+000 -5.450574e+000
      vertex  2.000000e-001  7.550201e+000 -5.541924e+000
      vertex  2.000000e-001  8.612597e+000 -5.806004e+000
    endloop
  endfacet
  facet normal  1.000000e+000  0.000000e+000  0.000000e+000
    outer loop
      vertex  2.000000e-001  8.612597e+000 -5.806004e+000
      vertex  2.000000e-001  7.550201e+000 -5.541924e+000
      vertex  2.000000e-001  7.820856e+000 -5.672264e+000
    endloop
  endfacet
  facet normal  1.000000e+000  0.000000e+000  0.000000e+000
    outer loop
      vertex  2.000000e-001  8.612597e+000 -5.806004e+000
      vertex  2.000000e-001  7.820856e+000 -5.672264e+000
      vertex  2.000000e-001  8.008154e+000 -5.907128e+000
    endloop
  endfacet
  facet normal  9.999999e-001  0.000000e+000  -0.000000e+000
    outer loop
      vertex  2.000000e-001  8.008154e+000 -5.907128e+000
      vertex  2.000000e-001  8.075000e+000 -6.200000e+000
      vertex  2.000000e-001  8.612597e+000 -5.806004e+000
    endloop
  endfacet
  facet normal  9.999999e-001  0.000000e+000  0.000000e+000
    outer loop
      vertex  2.000000e-001  8.612597e+000 -5.806004e+000
      vertex  2.000000e-001  8.075000e+000 -6.200000e+000
      vertex  2.000000e-001  8.675000e+000 -6.200000e+000
    endloop
  endfacet
  facet normal  9.999999e-001  0.000000e+000  0.000000e+000
    outer loop
      vertex  2.000000e-001 -8.431497e+000 -5.450574e+000
      vertex  2.000000e-001 -7.793997e+000 -4.987403e+000
      vertex  2.000000e-001 -8.149426e+000 -5.168503e+000
    endloop
  endfacet
  facet normal  9.999999e-001  -0.000000e+000  0.000000e+000
    outer loop
      vertex  2.000000e-001 -7.400000e+000 -4.925000e+000
      vertex  2.000000e-001 -7.793997e+000 -4.987403e+000
      vertex  2.000000e-001 -7.550201e+000 -5.541924e+000
    endloop
  endfacet
  facet normal  1.000000e+000  0.000000e+000  0.000000e+000
    outer loop
      vertex  2.000000e-001 -7.400000e+000 -4.925000e+000
      vertex  2.000000e-001 -7.550201e+000 -5.541924e+000
      vertex  2.000000e-001 -7.249798e+000 -5.541924e+000
    endloop
  endfacet
  facet normal  1.000000e+000  -0.000000e+000  -0.000000e+000
    outer loop
      vertex  2.000000e-001 -7.400000e+000 -4.925000e+000
      vertex  2.000000e-001 -7.249798e+000 -5.541924e+000
      vertex  2.000000e-001 -6.979145e+000 -5.672264e+000
    endloop
  endfacet
  facet normal  1.000000e+000  -0.000000e+000  -0.000000e+000
    outer loop
      vertex  2.000000e-001 -7.400000e+000 -4.925000e+000
      vertex  2.000000e-001 -6.979145e+000 -5.672264e+000
      vertex  2.000000e-001 -6.791846e+000 -5.907128e+000
    endloop
  endfacet
  facet normal  1.000000e+000  0.000000e+000  -0.000000e+000
    outer loop
      vertex  2.000000e-001 -7.400000e+000 -4.925000e+000
      vertex  2.000000e-001 -6.791846e+000 -5.907128e+000
      vertex  2.000000e-001 -5.985000e+000 -4.300000e+000
    endloop
  endfacet
  facet normal  1.000000e+000  0.000000e+000  0.000000e+000
    outer loop
      vertex  2.000000e-001 -7.400000e+000 -4.925000e+000
      vertex  2.000000e-001 -5.985000e+000 -4.300000e+000
      vertex  2.000000e-001 -7.400000e+000 -4.300000e+000
    endloop
  endfacet
  facet normal  1.000000e+000  0.000000e+000  0.000000e+000
    outer loop
      vertex  2.000000e-001 -8.675000e+000 -8.500000e+000
      vertex  2.000000e-001 -5.985000e+000 -8.500000e+000
      vertex  2.000000e-001 -7.249798e+000 -6.858077e+000
    endloop
  endfacet
  facet normal  1.000000e+000  0.000000e+000  0.000000e+000
    outer loop
      vertex  2.000000e-001 -8.675000e+000 -8.500000e+000
      vertex  2.000000e-001 -7.249798e+000 -6.858077e+000
      vertex  2.000000e-001 -7.550201e+000 -6.858077e+000
    endloop
  endfacet
  facet normal  1.000000e+000  0.000000e+000  0.000000e+000
    outer loop
      vertex  2.000000e-001 -8.675000e+000 -8.500000e+000
      vertex  2.000000e-001 -7.550201e+000 -6.858077e+000
      vertex  2.000000e-001 -7.820856e+000 -6.727736e+000
    endloop
  endfacet
  facet normal  1.000000e+000  0.000000e+000  0.000000e+000
    outer loop
      vertex  2.000000e-001 -8.675000e+000 -8.500000e+000
      vertex  2.000000e-001 -7.820856e+000 -6.727736e+000
      vertex  2.000000e-001 -8.008154e+000 -6.492872e+000
    endloop
  endfacet
  facet normal  1.000000e+000  0.000000e+000  0.000000e+000
    outer loop
      vertex  2.000000e-001 -8.675000e+000 -8.500000e+000
      vertex  2.000000e-001 -8.008154e+000 -6.492872e+000
      vertex  2.000000e-001 -8.075000e+000 -6.200000e+000
    endloop
  endfacet
  facet normal  1.000000e+000  0.000000e+000  0.000000e+000
    outer loop
      vertex  2.000000e-001 -8.675000e+000 -8.500000e+000
      vertex  2.000000e-001 -8.075000e+000 -6.200000e+000
      vertex  2.000000e-001 -8.675000e+000 -6.200000e+000
    endloop
  endfacet
  facet normal  1.000000e+000  0.000000e+000  0.000000e+000
    outer loop
      vertex  2.000000e-001 -5.985000e+000 -8.500000e+000
      vertex  2.000000e-001 -5.985000e+000 -4.300000e+000
      vertex  2.000000e-001 -6.791846e+000 -5.907128e+000
    endloop
  endfacet
  facet normal  1.000000e+000  0.000000e+000  0.000000e+000
    outer loop
      vertex  2.000000e-001 -5.985000e+000 -8.500000e+000
      vertex  2.000000e-001 -6.791846e+000 -5.907128e+000
      vertex  2.000000e-001 -6.725000e+000 -6.200000e+000
    endloop
  endfacet
  facet normal  1.000000e+000  0.000000e+000  0.000000e+000
    outer loop
      vertex  2.000000e-001 -5.985000e+000 -8.500000e+000
      vertex  2.000000e-001 -6.725000e+000 -6.200000e+000
      vertex  2.000000e-001 -6.791846e+000 -6.492872e+000
    endloop
  endfacet
  facet normal  1.000000e+000  0.000000e+000  0.000000e+000
    outer loop
      vertex  2.000000e-001 -5.985000e+000 -8.500000e+000
      vertex  2.000000e-001 -6.791846e+000 -6.492872e+000
      vertex  2.000000e-001 -6.979145e+000 -6.727736e+000
    endloop
  endfacet
  facet normal  1.000000e+000  0.000000e+000  0.000000e+000
    outer loop
      vertex  2.000000e-001 -5.985000e+000 -8.500000e+000
      vertex  2.000000e-001 -6.979145e+000 -6.727736e+000
      vertex  2.000000e-001 -7.249798e+000 -6.858077e+000
    endloop
  endfacet
  facet normal  1.000000e+000  0.000000e+000  0.000000e+000
    outer loop
      vertex  2.000000e-001 -8.612597e+000 -5.806004e+000
      vertex  2.000000e-001 -7.820856e+000 -5.672264e+000
      vertex  2.000000e-001 -8.431497e+000 -5.450574e+000
    endloop
  endfacet
  facet normal  1.000000e+000  0.000000e+000  0.000000e+000
    outer loop
      vertex  2.000000e-001 -8.431497e+000 -5.450574e+000
      vertex  2.000000e-001 -7.820856e+000 -5.672264e+000
      vertex  2.000000e-001 -7.550201e+000 -5.541924e+000
    endloop
  endfacet
  facet normal  9.999999e-001  0.000000e+000  0.000000e+000
    outer loop
      vertex  2.000000e-001 -8.431497e+000 -5.450574e+000
      vertex  2.000000e-001 -7.550201e+000 -5.541924e+000
      vertex  2.000000e-001 -7.793997e+000 -4.987403e+000
    endloop
  endfacet
  facet normal  9.999999e-001  0.000000e+000  0.000000e+000
    outer loop
      vertex  2.000000e-001 -8.675000e+000 -6.200000e+000
      vertex  2.000000e-001 -8.075000e+000 -6.200000e+000
      vertex  2.000000e-001 -8.612597e+000 -5.806004e+000
    endloop
  endfacet
  facet normal  9.999999e-001  0.000000e+000  0.000000e+000
    outer loop
      vertex  2.000000e-001 -8.612597e+000 -5.806004e+000
      vertex  2.000000e-001 -8.075000e+000 -6.200000e+000
      vertex  2.000000e-001 -8.008154e+000 -5.907128e+000
    endloop
  endfacet
  facet normal  1.000000e+000  0.000000e+000  -0.000000e+000
    outer loop
      vertex  2.000000e-001 -8.612597e+000 -5.806004e+000
      vertex  2.000000e-001 -8.008154e+000 -5.907128e+000
      vertex  2.000000e-001 -7.820856e+000 -5.672264e+000
    endloop
  endfacet
  facet normal  0.000000e+000  4.338841e-001 -9.009687e-001
    outer loop
      vertex  0.000000e+000  7.249798e+000 -5.541924e+000
      vertex  2.000000e-001  6.979145e+000 -5.672264e+000
      vertex  0.000000e+000  6.979145e+000 -5.672264e+000
    endloop
  endfacet
  facet normal  0.000000e+000  7.818308e-001 -6.234907e-001
    outer loop
      vertex  0.000000e+000  6.979145e+000 -5.672264e+000
      vertex  2.000000e-001  6.979145e+000 -5.672264e+000
      vertex  2.000000e-001  6.791846e+000 -5.907128e+000
    endloop
  endfacet
  facet normal  0.000000e+000  7.818308e-001 -6.234907e-001
    outer loop
      vertex  0.000000e+000  6.979145e+000 -5.672264e+000
      vertex  2.000000e-001  6.791846e+000 -5.907128e+000
      vertex  0.000000e+000  6.791846e+000 -5.907128e+000
    endloop
  endfacet
  facet normal  0.000000e+000  9.749280e-001 -2.225206e-001
    outer loop
      vertex  0.000000e+000  6.791846e+000 -5.907128e+000
      vertex  2.000000e-001  6.791846e+000 -5.907128e+000
      vertex  2.000000e-001  6.725000e+000 -6.200000e+000
    endloop
  endfacet
  facet normal  0.000000e+000  9.749280e-001 -2.225206e-001
    outer loop
      vertex  0.000000e+000  6.791846e+000 -5.907128e+000
      vertex  2.000000e-001  6.725000e+000 -6.200000e+000
      vertex  0.000000e+000  6.725000e+000 -6.200000e+000
    endloop
  endfacet
  facet normal  0.000000e+000  4.338841e-001 -9.009687e-001
    outer loop
      vertex  2.000000e-001  6.979145e+000 -5.672264e+000
      vertex  0.000000e+000  7.249798e+000 -5.541924e+000
      vertex  2.000000e-001  7.249798e+000 -5.541924e+000
    endloop
  endfacet
  facet normal  0.000000e+000  0.000000e+000 -1.000000e+000
    outer loop
      vertex  2.000000e-001  7.249798e+000 -5.541924e+000
      vertex  0.000000e+000  7.249798e+000 -5.541924e+000
      vertex  0.000000e+000  7.550201e+000 -5.541924e+000
    endloop
  endfacet
  facet normal  0.000000e+000  0.000000e+000 -1.000000e+000
    outer loop
      vertex  2.000000e-001  7.249798e+000 -5.541924e+000
      vertex  0.000000e+000  7.550201e+000 -5.541924e+000
      vertex  2.000000e-001  7.550201e+000 -5.541924e+000
    endloop
  endfacet
  facet normal  -0.000000e+000 -4.338835e-001 -9.009690e-001
    outer loop
      vertex  2.000000e-001  7.550201e+000 -5.541924e+000
      vertex  0.000000e+000  7.550201e+000 -5.541924e+000
      vertex  0.000000e+000  7.820856e+000 -5.672264e+000
    endloop
  endfacet
  facet normal  0.000000e+000 -4.338835e-001 -9.009690e-001
    outer loop
      vertex  2.000000e-001  7.550201e+000 -5.541924e+000
      vertex  0.000000e+000  7.820856e+000 -5.672264e+000
      vertex  2.000000e-001  7.820856e+000 -5.672264e+000
    endloop
  endfacet
  facet normal  -0.000000e+000 -7.818316e-001 -6.234897e-001
    outer loop
      vertex  2.000000e-001  7.820856e+000 -5.672264e+000
      vertex  0.000000e+000  7.820856e+000 -5.672264e+000
      vertex  0.000000e+000  8.008154e+000 -5.907128e+000
    endloop
  endfacet
  facet normal  0.000000e+000 -7.818316e-001 -6.234897e-001
    outer loop
      vertex  2.000000e-001  7.820856e+000 -5.672264e+000
      vertex  0.000000e+000  8.008154e+000 -5.907128e+000
      vertex  2.000000e-001  8.008154e+000 -5.907128e+000
    endloop
  endfacet
  facet normal  -0.000000e+000 -9.749280e-001 -2.225206e-001
    outer loop
      vertex  2.000000e-001  8.008154e+000 -5.907128e+000
      vertex  0.000000e+000  8.008154e+000 -5.907128e+000
      vertex  0.000000e+000  8.075000e+000 -6.200000e+000
    endloop
  endfacet
  facet normal  0.000000e+000 -9.749280e-001 -2.225206e-001
    outer loop
      vertex  2.000000e-001  8.008154e+000 -5.907128e+000
      vertex  0.000000e+000  8.075000e+000 -6.200000e+000
      vertex  2.000000e-001  8.075000e+000 -6.200000e+000
    endloop
  endfacet
  facet normal  0.000000e+000 -4.338835e-001  9.009690e-001
    outer loop
      vertex  0.000000e+000  7.550201e+000 -6.858077e+000
      vertex  2.000000e-001  7.820856e+000 -6.727736e+000
      vertex  0.000000e+000  7.820856e+000 -6.727736e+000
    endloop
  endfacet
  facet normal  0.000000e+000 -7.818316e-001  6.234897e-001
    outer loop
      vertex  0.000000e+000  7.820856e+000 -6.727736e+000
      vertex  2.000000e-001  7.820856e+000 -6.727736e+000
      vertex  2.000000e-001  8.008154e+000 -6.492872e+000
    endloop
  endfacet
  facet normal  0.000000e+000 -7.818316e-001  6.234897e-001
    outer loop
      vertex  0.000000e+000  7.820856e+000 -6.727736e+000
      vertex  2.000000e-001  8.008154e+000 -6.492872e+000
      vertex  0.000000e+000  8.008154e+000 -6.492872e+000
    endloop
  endfacet
  facet normal  0.000000e+000 -9.749281e-001  2.225203e-001
    outer loop
      vertex  0.000000e+000  8.008154e+000 -6.492872e+000
      vertex  2.000000e-001  8.008154e+000 -6.492872e+000
      vertex  2.000000e-001  8.075000e+000 -6.200000e+000
    endloop
  endfacet
  facet normal  0.000000e+000 -9.749281e-001  2.225203e-001
    outer loop
      vertex  0.000000e+000  8.008154e+000 -6.492872e+000
      vertex  2.000000e-001  8.075000e+000 -6.200000e+000
      vertex  0.000000e+000  8.075000e+000 -6.200000e+000
    endloop
  endfacet
  facet normal  0.000000e+000 -4.338835e-001  9.009690e-001
    outer loop
      vertex  2.000000e-001  7.820856e+000 -6.727736e+000
      vertex  0.000000e+000  7.550201e+000 -6.858077e+000
      vertex  2.000000e-001  7.550201e+000 -6.858077e+000
    endloop
  endfacet
  facet normal  0.000000e+000  0.000000e+000  1.000000e+000
    outer loop
      vertex  2.000000e-001  7.550201e+000 -6.858077e+000
      vertex  0.000000e+000  7.550201e+000 -6.858077e+000
      vertex  0.000000e+000  7.249798e+000 -6.858077e+000
    endloop
  endfacet
  facet normal  0.000000e+000  0.000000e+000  1.000000e+000
    outer loop
      vertex  2.000000e-001  7.550201e+000 -6.858077e+000
      vertex  0.000000e+000  7.249798e+000 -6.858077e+000
      vertex  2.000000e-001  7.249798e+000 -6.858077e+000
    endloop
  endfacet
  facet normal  0.000000e+000  4.338841e-001  9.009687e-001
    outer loop
      vertex  2.000000e-001  7.249798e+000 -6.858077e+000
      vertex  0.000000e+000  7.249798e+000 -6.858077e+000
      vertex  0.000000e+000  6.979145e+000 -6.727736e+000
    endloop
  endfacet
  facet normal  -0.000000e+000  4.338841e-001  9.009687e-001
    outer loop
      vertex  2.000000e-001  7.249798e+000 -6.858077e+000
      vertex  0.000000e+000  6.979145e+000 -6.727736e+000
      vertex  2.000000e-001  6.979145e+000 -6.727736e+000
    endloop
  endfacet
  facet normal  0.000000e+000  7.818308e-001  6.234907e-001
    outer loop
      vertex  2.000000e-001  6.979145e+000 -6.727736e+000
      vertex  0.000000e+000  6.979145e+000 -6.727736e+000
      vertex  0.000000e+000  6.791846e+000 -6.492872e+000
    endloop
  endfacet
  facet normal  -0.000000e+000  7.818308e-001  6.234907e-001
    outer loop
      vertex  2.000000e-001  6.979145e+000 -6.727736e+000
      vertex  0.000000e+000  6.791846e+000 -6.492872e+000
      vertex  2.000000e-001  6.791846e+000 -6.492872e+000
    endloop
  endfacet
  facet normal  0.000000e+000  9.749281e-001  2.225203e-001
    outer loop
      vertex  2.000000e-001  6.791846e+000 -6.492872e+000
      vertex  0.000000e+000  6.791846e+000 -6.492872e+000
      vertex  0.000000e+000  6.725000e+000 -6.200000e+000
    endloop
  endfacet
  facet normal  -0.000000e+000  9.749281e-001  2.225203e-001
    outer loop
      vertex  2.000000e-001  6.791846e+000 -6.492872e+000
      vertex  0.000000e+000  6.725000e+000 -6.200000e+000
      vertex  2.000000e-001  6.725000e+000 -6.200000e+000
    endloop
  endfacet
  facet normal  0.000000e+000  4.338835e-001 -9.009690e-001
    outer loop
      vertex  0.000000e+000 -7.550201e+000 -5.541924e+000
      vertex  2.000000e-001 -7.820856e+000 -5.672264e+000
      vertex  0.000000e+000 -7.820856e+000 -5.672264e+000
    endloop
  endfacet
  facet normal  0.000000e+000  7.818316e-001 -6.234897e-001
    outer loop
      vertex  0.000000e+000 -7.820856e+000 -5.672264e+000
      vertex  2.000000e-001 -7.820856e+000 -5.672264e+000
      vertex  2.000000e-001 -8.008154e+000 -5.907128e+000
    endloop
  endfacet
  facet normal  0.000000e+000  7.818316e-001 -6.234897e-001
    outer loop
      vertex  0.000000e+000 -7.820856e+000 -5.672264e+000
      vertex  2.000000e-001 -8.008154e+000 -5.907128e+000
      vertex  0.000000e+000 -8.008154e+000 -5.907128e+000
    endloop
  endfacet
  facet normal  0.000000e+000  9.749280e-001 -2.225206e-001
    outer loop
      vertex  0.000000e+000 -8.008154e+000 -5.907128e+000
      vertex  2.000000e-001 -8.008154e+000 -5.907128e+000
      vertex  2.000000e-001 -8.075000e+000 -6.200000e+000
    endloop
  endfacet
  facet normal  0.000000e+000  9.749280e-001 -2.225206e-001
    outer loop
      vertex  0.000000e+000 -8.008154e+000 -5.907128e+000
      vertex  2.000000e-001 -8.075000e+000 -6.200000e+000
      vertex  0.000000e+000 -8.075000e+000 -6.200000e+000
    endloop
  endfacet
  facet normal  0.000000e+000  4.338835e-001 -9.009690e-001
    outer loop
      vertex  2.000000e-001 -7.820856e+000 -5.672264e+000
      vertex  0.000000e+000 -7.550201e+000 -5.541924e+000
      vertex  2.000000e-001 -7.550201e+000 -5.541924e+000
    endloop
  endfacet
  facet normal  0.000000e+000  0.000000e+000 -1.000000e+000
    outer loop
      vertex  2.000000e-001 -7.550201e+000 -5.541924e+000
      vertex  0.000000e+000 -7.550201e+000 -5.541924e+000
      vertex  0.000000e+000 -7.249798e+000 -5.541924e+000
    endloop
  endfacet
  facet normal  0.000000e+000  0.000000e+000 -1.000000e+000
    outer loop
      vertex  2.000000e-001 -7.550201e+000 -5.541924e+000
      vertex  0.000000e+000 -7.249798e+000 -5.541924e+000
      vertex  2.000000e-001 -7.249798e+000 -5.541924e+000
    endloop
  endfacet
  facet normal  -0.000000e+000 -4.338841e-001 -9.009687e-001
    outer loop
      vertex  2.000000e-001 -7.249798e+000 -5.541924e+000
      vertex  0.000000e+000 -7.249798e+000 -5.541924e+000
      vertex  0.000000e+000 -6.979145e+000 -5.672264e+000
    endloop
  endfacet
  facet normal  0.000000e+000 -4.338841e-001 -9.009687e-001
    outer loop
      vertex  2.000000e-001 -7.249798e+000 -5.541924e+000
      vertex  0.000000e+000 -6.979145e+000 -5.672264e+000
      vertex  2.000000e-001 -6.979145e+000 -5.672264e+000
    endloop
  endfacet
  facet normal  -0.000000e+000 -7.818308e-001 -6.234907e-001
    outer loop
      vertex  2.000000e-001 -6.979145e+000 -5.672264e+000
      vertex  0.000000e+000 -6.979145e+000 -5.672264e+000
      vertex  0.000000e+000 -6.791846e+000 -5.907128e+000
    endloop
  endfacet
  facet normal  0.000000e+000 -7.818308e-001 -6.234907e-001
    outer loop
      vertex  2.000000e-001 -6.979145e+000 -5.672264e+000
      vertex  0.000000e+000 -6.791846e+000 -5.907128e+000
      vertex  2.000000e-001 -6.791846e+000 -5.907128e+000
    endloop
  endfacet
  facet normal  -0.000000e+000 -9.749280e-001 -2.225206e-001
    outer loop
      vertex  2.000000e-001 -6.791846e+000 -5.907128e+000
      vertex  0.000000e+000 -6.791846e+000 -5.907128e+000
      vertex  0.000000e+000 -6.725000e+000 -6.200000e+000
    endloop
  endfacet
  facet normal  0.000000e+000 -9.749280e-001 -2.225206e-001
    outer loop
      vertex  2.000000e-001 -6.791846e+000 -5.907128e+000
      vertex  0.000000e+000 -6.725000e+000 -6.200000e+000
      vertex  2.000000e-001 -6.725000e+000 -6.200000e+000
    endloop
  endfacet
  facet normal  0.000000e+000 -4.338841e-001  9.009687e-001
    outer loop
      vertex  0.000000e+000 -7.249798e+000 -6.858077e+000
      vertex  2.000000e-001 -6.979145e+000 -6.727736e+000
      vertex  0.000000e+000 -6.979145e+000 -6.727736e+000
    endloop
  endfacet
  facet normal  0.000000e+000 -7.818308e-001  6.234907e-001
    outer loop
      vertex  0.000000e+000 -6.979145e+000 -6.727736e+000
      vertex  2.000000e-001 -6.979145e+000 -6.727736e+000
      vertex  2.000000e-001 -6.791846e+000 -6.492872e+000
    endloop
  endfacet
  facet normal  0.000000e+000 -7.818308e-001  6.234907e-001
    outer loop
      vertex  0.000000e+000 -6.979145e+000 -6.727736e+000
      vertex  2.000000e-001 -6.791846e+000 -6.492872e+000
      vertex  0.000000e+000 -6.791846e+000 -6.492872e+000
    endloop
  endfacet
  facet normal  0.000000e+000 -9.749281e-001  2.225203e-001
    outer loop
      vertex  0.000000e+000 -6.791846e+000 -6.492872e+000
      vertex  2.000000e-001 -6.791846e+000 -6.492872e+000
      vertex  2.000000e-001 -6.725000e+000 -6.200000e+000
    endloop
  endfacet
  facet normal  0.000000e+000 -9.749281e-001  2.225203e-001
    outer loop
      vertex  0.000000e+000 -6.791846e+000 -6.492872e+000
      vertex  2.000000e-001 -6.725000e+000 -6.200000e+000
      vertex  0.000000e+000 -6.725000e+000 -6.200000e+000
    endloop
  endfacet
  facet normal  0.000000e+000 -4.338841e-001  9.009687e-001
    outer loop
      vertex  2.000000e-001 -6.979145e+000 -6.727736e+000
      vertex  0.000000e+000 -7.249798e+000 -6.858077e+000
      vertex  2.000000e-001 -7.249798e+000 -6.858077e+000
    endloop
  endfacet
  facet normal  0.000000e+000  0.000000e+000  1.000000e+000
    outer loop
      vertex  2.000000e-001 -7.249798e+000 -6.858077e+000
      vertex  0.000000e+000 -7.249798e+000 -6.858077e+000
      vertex  0.000000e+000 -7.550201e+000 -6.858077e+000
    endloop
  endfacet
  facet normal  0.000000e+000  0.000000e+000  1.000000e+000
    outer loop
      vertex  2.000000e-001 -7.249798e+000 -6.858077e+000
      vertex  0.000000e+000 -7.550201e+000 -6.858077e+000
      vertex  2.000000e-001 -7.550201e+000 -6.858077e+000
    endloop
  endfacet
  facet normal  0.000000e+000  4.338835e-001  9.009690e-001
    outer loop
      vertex  2.000000e-001 -7.550201e+000 -6.858077e+000
      vertex  0.000000e+000 -7.550201e+000 -6.858077e+000
      vertex  0.000000e+000 -7.820856e+000 -6.727736e+000
    endloop
  endfacet
  facet normal  -0.000000e+000  4.338835e-001  9.009690e-001
    outer loop
      vertex  2.000000e-001 -7.550201e+000 -6.858077e+000
      vertex  0.000000e+000 -7.820856e+000 -6.727736e+000
      vertex  2.000000e-001 -7.820856e+000 -6.727736e+000
    endloop
  endfacet
  facet normal  0.000000e+000  7.818316e-001  6.234897e-001
    outer loop
      vertex  2.000000e-001 -7.820856e+000 -6.727736e+000
      vertex  0.000000e+000 -7.820856e+000 -6.727736e+000
      vertex  0.000000e+000 -8.008154e+000 -6.492872e+000
    endloop
  endfacet
  facet normal  -0.000000e+000  7.818316e-001  6.234897e-001
    outer loop
      vertex  2.000000e-001 -7.820856e+000 -6.727736e+000
      vertex  0.000000e+000 -8.008154e+000 -6.492872e+000
      vertex  2.000000e-001 -8.008154e+000 -6.492872e+000
    endloop
  endfacet
  facet normal  0.000000e+000  9.749281e-001  2.225203e-001
    outer loop
      vertex  2.000000e-001 -8.008154e+000 -6.492872e+000
      vertex  0.000000e+000 -8.008154e+000 -6.492872e+000
      vertex  0.000000e+000 -8.075000e+000 -6.200000e+000
    endloop
  endfacet
  facet normal  -0.000000e+000  9.749281e-001  2.225203e-001
    outer loop
      vertex  2.000000e-001 -8.008154e+000 -6.492872e+000
      vertex  0.000000e+000 -8.075000e+000 -6.200000e+000
      vertex  2.000000e-001 -8.075000e+000 -6.200000e+000
    endloop
  endfacet
  facet normal  0.000000e+000  9.999999e-001  0.000000e+000
    outer loop
      vertex  2.000000e-001  8.675000e+000 -8.500000e+000
      vertex  0.000000e+000  8.675000e+000 -8.500000e+000
      vertex  2.000000e-001  8.675000e+000 -6.200000e+000
    endloop
  endfacet
  facet normal  0.000000e+000  9.999999e-001  0.000000e+000
    outer loop
      vertex  2.000000e-001  8.675000e+000 -6.200000e+000
      vertex  0.000000e+000  8.675000e+000 -8.500000e+000
      vertex  0.000000e+000  8.675000e+000 -6.200000e+000
    endloop
  endfacet
  facet normal  0.000000e+000 -9.999999e-001  0.000000e+000
    outer loop
      vertex  2.000000e-001 -8.675000e+000 -6.200000e+000
      vertex  0.000000e+000 -8.675000e+000 -6.200000e+000
      vertex  2.000000e-001 -8.675000e+000 -8.500000e+000
    endloop
  endfacet
  facet normal  0.000000e+000 -9.999999e-001  0.000000e+000
    outer loop
      vertex  2.000000e-001 -8.675000e+000 -8.500000e+000
      vertex  0.000000e+000 -8.675000e+000 -6.200000e+000
      vertex  0.000000e+000 -8.675000e+000 -8.500000e+000
    endloop
  endfacet
  facet normal  0.000000e+000 -9.876884e-001  1.564341e-001
    outer loop
      vertex  0.000000e+000 -8.675000e+000 -6.200000e+000
      vertex  2.000000e-001 -8.675000e+000 -6.200000e+000
      vertex  0.000000e+000 -8.612597e+000 -5.806004e+000
    endloop
  endfacet
  facet normal  0.000000e+000 -9.876884e-001  1.564341e-001
    outer loop
      vertex  0.000000e+000 -8.612597e+000 -5.806004e+000
      vertex  2.000000e-001 -8.675000e+000 -6.200000e+000
      vertex  2.000000e-001 -8.612597e+000 -5.806004e+000
    endloop
  endfacet
  facet normal  0.000000e+000 -8.910061e-001  4.539913e-001
    outer loop
      vertex  0.000000e+000 -8.612597e+000 -5.806004e+000
      vertex  2.000000e-001 -8.612597e+000 -5.806004e+000
      vertex  0.000000e+000 -8.431497e+000 -5.450574e+000
    endloop
  endfacet
  facet normal  0.000000e+000 -8.910061e-001  4.539913e-001
    outer loop
      vertex  0.000000e+000 -8.431497e+000 -5.450574e+000
      vertex  2.000000e-001 -8.612597e+000 -5.806004e+000
      vertex  2.000000e-001 -8.431497e+000 -5.450574e+000
    endloop
  endfacet
  facet normal  0.000000e+000 -7.071074e-001  7.071062e-001
    outer loop
      vertex  0.000000e+000 -8.431497e+000 -5.450574e+000
      vertex  2.000000e-001 -8.431497e+000 -5.450574e+000
      vertex  0.000000e+000 -8.149426e+000 -5.168503e+000
    endloop
  endfacet
  facet normal  0.000000e+000 -7.071074e-001  7.071062e-001
    outer loop
      vertex  0.000000e+000 -8.149426e+000 -5.168503e+000
      vertex  2.000000e-001 -8.431497e+000 -5.450574e+000
      vertex  2.000000e-001 -8.149426e+000 -5.168503e+000
    endloop
  endfacet
  facet normal  0.000000e+000 -4.539903e-001  8.910066e-001
    outer loop
      vertex  0.000000e+000 -8.149426e+000 -5.168503e+000
      vertex  2.000000e-001 -8.149426e+000 -5.168503e+000
      vertex  0.000000e+000 -7.793997e+000 -4.987403e+000
    endloop
  endfacet
  facet normal  0.000000e+000 -4.539903e-001  8.910066e-001
    outer loop
      vertex  0.000000e+000 -7.793997e+000 -4.987403e+000
      vertex  2.000000e-001 -8.149426e+000 -5.168503e+000
      vertex  2.000000e-001 -7.793997e+000 -4.987403e+000
    endloop
  endfacet
  facet normal  0.000000e+000 -1.564339e-001  9.876884e-001
    outer loop
      vertex  0.000000e+000 -7.793997e+000 -4.987403e+000
      vertex  2.000000e-001 -7.793997e+000 -4.987403e+000
      vertex  0.000000e+000 -7.400000e+000 -4.925000e+000
    endloop
  endfacet
  facet normal  0.000000e+000 -1.564339e-001  9.876884e-001
    outer loop
      vertex  0.000000e+000 -7.400000e+000 -4.925000e+000
      vertex  2.000000e-001 -7.793997e+000 -4.987403e+000
      vertex  2.000000e-001 -7.400000e+000 -4.925000e+000
    endloop
  endfacet
  facet normal  0.000000e+000 -1.000000e+000  -0.000000e+000
    outer loop
      vertex  2.000000e-001 -7.400000e+000 -4.925000e+000
      vertex  2.000000e-001 -7.400000e+000 -4.300000e+000
      vertex  0.000000e+000 -7.400000e+000 -4.925000e+000
    endloop
  endfacet
  facet normal  0.000000e+000 -1.000000e+000  0.000000e+000
    outer loop
      vertex  0.000000e+000 -7.400000e+000 -4.925000e+000
      vertex  2.000000e-001 -7.400000e+000 -4.300000e+000
      vertex  0.000000e+000 -7.400000e+000 -4.300000e+000
    endloop
  endfacet
  facet normal  0.000000e+000  1.000000e+000  0.000000e+000
    outer loop
      vertex  2.000000e-001  7.400000e+000 -4.925000e+000
      vertex  0.000000e+000  7.400000e+000 -4.925000e+000
      vertex  2.000000e-001  7.400000e+000 -4.300000e+000
    endloop
  endfacet
  facet normal  0.000000e+000  1.000000e+000  0.000000e+000
    outer loop
      vertex  2.000000e-001  7.400000e+000 -4.300000e+000
      vertex  0.000000e+000  7.400000e+000 -4.925000e+000
      vertex  0.000000e+000  7.400000e+000 -4.300000e+000
    endloop
  endfacet
  facet normal  0.000000e+000  1.564339e-001  9.876884e-001
    outer loop
      vertex  0.000000e+000  7.400000e+000 -4.925000e+000
      vertex  2.000000e-001  7.400000e+000 -4.925000e+000
      vertex  0.000000e+000  7.793997e+000 -4.987403e+000
    endloop
  endfacet
  facet normal  -0.000000e+000  1.564339e-001  9.876884e-001
    outer loop
      vertex  0.000000e+000  7.793997e+000 -4.987403e+000
      vertex  2.000000e-001  7.400000e+000 -4.925000e+000
      vertex  2.000000e-001  7.793997e+000 -4.987403e+000
    endloop
  endfacet
  facet normal  0.000000e+000  4.539903e-001  8.910066e-001
    outer loop
      vertex  0.000000e+000  7.793997e+000 -4.987403e+000
      vertex  2.000000e-001  7.793997e+000 -4.987403e+000
      vertex  0.000000e+000  8.149426e+000 -5.168503e+000
    endloop
  endfacet
  facet normal  -0.000000e+000  4.539903e-001  8.910066e-001
    outer loop
      vertex  0.000000e+000  8.149426e+000 -5.168503e+000
      vertex  2.000000e-001  7.793997e+000 -4.987403e+000
      vertex  2.000000e-001  8.149426e+000 -5.168503e+000
    endloop
  endfacet
  facet normal  0.000000e+000  7.071074e-001  7.071062e-001
    outer loop
      vertex  0.000000e+000  8.149426e+000 -5.168503e+000
      vertex  2.000000e-001  8.149426e+000 -5.168503e+000
      vertex  0.000000e+000  8.431497e+000 -5.450574e+000
    endloop
  endfacet
  facet normal  -0.000000e+000  7.071074e-001  7.071062e-001
    outer loop
      vertex  0.000000e+000  8.431497e+000 -5.450574e+000
      vertex  2.000000e-001  8.149426e+000 -5.168503e+000
      vertex  2.000000e-001  8.431497e+000 -5.450574e+000
    endloop
  endfacet
  facet normal  0.000000e+000  8.910061e-001  4.539913e-001
    outer loop
      vertex  0.000000e+000  8.431497e+000 -5.450574e+000
      vertex  2.000000e-001  8.431497e+000 -5.450574e+000
      vertex  0.000000e+000  8.612597e+000 -5.806004e+000
    endloop
  endfacet
  facet normal  -0.000000e+000  8.910061e-001  4.539913e-001
    outer loop
      vertex  0.000000e+000  8.612597e+000 -5.806004e+000
      vertex  2.000000e-001  8.431497e+000 -5.450574e+000
      vertex  2.000000e-001  8.612597e+000 -5.806004e+000
    endloop
  endfacet
  facet normal  0.000000e+000  9.876884e-001  1.564341e-001
    outer loop
      vertex  0.000000e+000  8.612597e+000 -5.806004e+000
      vertex  2.000000e-001  8.612597e+000 -5.806004e+000
      vertex  0.000000e+000  8.675000e+000 -6.200000e+000
    endloop
  endfacet
  facet normal  -0.000000e+000  9.876884e-001  1.564341e-001
    outer loop
      vertex  0.000000e+000  8.675000e+000 -6.200000e+000
      vertex  2.000000e-001  8.612597e+000 -5.806004e+000
      vertex  2.000000e-001  8.675000e+000 -6.200000e+000
    endloop
  endfacet
endsolid CATIA STL
